<svg width="12" height="13" viewBox="0 0 12 13" fill="none" xmlns="http://www.w3.org/2000/svg">
<path d="M8.66667 7.02182C6.82667 7.02182 5.33333 8.34662 5.33333 9.97896C5.33333 11.6113 6.82667 12.9361 8.66667 12.9361C10.5067 12.9361 12 11.6113 12 9.97896C12 8.34662 10.5067 7.02182 8.66667 7.02182ZM9.76667 11.3688L8.33333 10.0972V8.20467H9V9.85476L10.2333 10.9489L9.76667 11.3688ZM9.33333 1.69897H7.21333C6.93333 1.01291 6.2 0.516113 5.33333 0.516113C4.46667 0.516113 3.73333 1.01291 3.45333 1.69897H1.33333C0.6 1.69897 0 2.23125 0 2.88182V11.7532C0 12.4038 0.6 12.9361 1.33333 12.9361H5.40667C5.01225 12.5965 4.69139 12.1956 4.46 11.7532H1.33333V2.88182H2.66667V4.65611H8V2.88182H9.33333V5.88628C9.80667 5.94542 10.2533 6.06962 10.6667 6.24113V2.88182C10.6667 2.23125 10.0667 1.69897 9.33333 1.69897ZM5.33333 2.88182C4.96667 2.88182 4.66667 2.61568 4.66667 2.2904C4.66667 1.96511 4.96667 1.69897 5.33333 1.69897C5.7 1.69897 6 1.96511 6 2.2904C6 2.61568 5.7 2.88182 5.33333 2.88182Z" fill="#A39DAA"/>
</svg>
