<svg width="68" height="68" viewBox="0 0 68 68" fill="none" xmlns="http://www.w3.org/2000/svg">
<g filter="url(#filter0_ddd)">
<circle cx="34" cy="30" r="30" fill="#8838FF"/>
</g>
<path d="M20.375 42.75V49.8112L23.2156 48.1069L32.1444 42.75H41C43.0681 42.75 44.75 41.0681 44.75 39V24C44.75 21.9319 43.0681 20.25 41 20.25H18.5C16.4319 20.25 14.75 21.9319 14.75 24V39C14.75 41.0681 16.4319 42.75 18.5 42.75H20.375ZM18.5 24H41V39H31.1056L24.125 43.1887V39H18.5V24Z" fill="white"/>
<path d="M48.5 12.75H26C23.9319 12.75 22.25 14.4319 22.25 16.5H44.75C46.8181 16.5 48.5 18.1819 48.5 20.25V35.25C50.5681 35.25 52.25 33.5681 52.25 31.5V16.5C52.25 14.4319 50.5681 12.75 48.5 12.75Z" fill="white"/>
<defs>
<filter id="filter0_ddd" x="0" y="0" width="68" height="68" filterUnits="userSpaceOnUse" color-interpolation-filters="sRGB">
<feFlood flood-opacity="0" result="BackgroundImageFix"/>
<feColorMatrix in="SourceAlpha" type="matrix" values="0 0 0 0 0 0 0 0 0 0 0 0 0 0 0 0 0 0 127 0"/>
<feOffset dy="1"/>
<feGaussianBlur stdDeviation="0.5"/>
<feColorMatrix type="matrix" values="0 0 0 0 0.2 0 0 0 0 0.2 0 0 0 0 0.2 0 0 0 0.12 0"/>
<feBlend mode="normal" in2="BackgroundImageFix" result="effect1_dropShadow"/>
<feColorMatrix in="SourceAlpha" type="matrix" values="0 0 0 0 0 0 0 0 0 0 0 0 0 0 0 0 0 0 127 0"/>
<feOffset dy="4"/>
<feGaussianBlur stdDeviation="2"/>
<feColorMatrix type="matrix" values="0 0 0 0 0.2 0 0 0 0 0.2 0 0 0 0 0.2 0 0 0 0.25 0"/>
<feBlend mode="normal" in2="effect1_dropShadow" result="effect2_dropShadow"/>
<feColorMatrix in="SourceAlpha" type="matrix" values="0 0 0 0 0 0 0 0 0 0 0 0 0 0 0 0 0 0 127 0"/>
<feOffset dy="4"/>
<feGaussianBlur stdDeviation="2"/>
<feColorMatrix type="matrix" values="0 0 0 0 0.2 0 0 0 0 0.2 0 0 0 0 0.2 0 0 0 0.25 0"/>
<feBlend mode="normal" in2="effect2_dropShadow" result="effect3_dropShadow"/>
<feBlend mode="normal" in="SourceGraphic" in2="effect3_dropShadow" result="shape"/>
</filter>
</defs>
</svg>
