<svg width="58" height="58" viewBox="0 0 58 58" fill="none" xmlns="http://www.w3.org/2000/svg">
<g filter="url(#filter0_d)">
<rect x="3" width="50" height="50" rx="25" fill="#8838FF"/>
</g>
<path d="M35.35 23.04C35.0141 21.3377 34.0976 19.8049 32.7571 18.7032C31.4165 17.6016 29.7351 16.9996 28 17C25.11 17 22.6 18.64 21.35 21.04C19.8802 21.1988 18.521 21.8952 17.5335 22.9953C16.546 24.0954 15.9998 25.5217 16 27C16 30.31 18.69 33 22 33H35C37.76 33 40 30.76 40 28C40 25.36 37.95 23.22 35.35 23.04ZM33 26L28.35 30.65C28.15 30.85 27.84 30.85 27.64 30.65L23 26H26V22H30V26H33Z" fill="white"/>
<defs>
<filter id="filter0_d" x="0" y="0" width="58" height="58" filterUnits="userSpaceOnUse" color-interpolation-filters="sRGB">
<feFlood flood-opacity="0" result="BackgroundImageFix"/>
<feColorMatrix in="SourceAlpha" type="matrix" values="0 0 0 0 0 0 0 0 0 0 0 0 0 0 0 0 0 0 127 0"/>
<feOffset dx="1" dy="4"/>
<feGaussianBlur stdDeviation="2"/>
<feColorMatrix type="matrix" values="0 0 0 0 0 0 0 0 0 0 0 0 0 0 0 0 0 0 0.25 0"/>
<feBlend mode="normal" in2="BackgroundImageFix" result="effect1_dropShadow"/>
<feBlend mode="normal" in="SourceGraphic" in2="effect1_dropShadow" result="shape"/>
</filter>
</defs>
</svg>
