<svg width="24" height="16" viewBox="0 0 24 16" fill="none" xmlns="http://www.w3.org/2000/svg">
<path d="M19.35 6.04C19.0141 4.33772 18.0976 2.80486 16.7571 1.70325C15.4165 0.601633 13.7351 -0.000392242 12 1.91737e-07C9.11 1.91737e-07 6.6 1.64 5.35 4.04C3.88023 4.19883 2.52101 4.89521 1.53349 5.99532C0.545971 7.09543 -0.000171702 8.52168 4.04928e-08 10C4.04928e-08 13.31 2.69 16 6 16H19C21.76 16 24 13.76 24 11C24 8.36 21.95 6.22 19.35 6.04ZM17 9L12.35 13.65C12.15 13.85 11.84 13.85 11.64 13.65L7 9H10V5H14V9H17Z" fill="white"/>
</svg>
