<svg width="4" height="15" viewBox="0 0 4 15" fill="none" xmlns="http://www.w3.org/2000/svg">
<path d="M0 13.1271C-7.82739e-09 12.8941 0.0517313 12.6634 0.152241 12.4481C0.25275 12.2329 0.40007 12.0373 0.585787 11.8725C0.771504 11.7078 0.991982 11.5771 1.23463 11.4879C1.47728 11.3987 1.73736 11.3528 2 11.3528C2.26264 11.3528 2.52272 11.3987 2.76537 11.4879C3.00802 11.5771 3.2285 11.7078 3.41421 11.8725C3.59993 12.0373 3.74725 12.2329 3.84776 12.4481C3.94827 12.6634 4 12.8941 4 13.1271C4 13.5977 3.78929 14.049 3.41421 14.3818C3.03914 14.7145 2.53043 14.9014 2 14.9014C1.46957 14.9014 0.96086 14.7145 0.585787 14.3818C0.210714 14.049 0 13.5977 0 13.1271ZM0.196 2.47253C0.169367 2.24869 0.196078 2.02238 0.274401 1.80829C0.352724 1.59419 0.480908 1.3971 0.650638 1.2298C0.820367 1.06249 1.02785 0.928711 1.25962 0.837138C1.4914 0.745564 1.74228 0.698242 1.996 0.698242C2.24972 0.698242 2.50061 0.745564 2.73238 0.837138C2.96415 0.928711 3.17163 1.06249 3.34136 1.2298C3.51109 1.3971 3.63928 1.59419 3.7176 1.80829C3.79592 2.02238 3.82263 2.24869 3.796 2.47253L3.096 8.69496C3.07248 8.93941 2.9464 9.16712 2.74271 9.33306C2.53902 9.499 2.27255 9.59107 1.996 9.59107C1.71946 9.59107 1.45298 9.499 1.24929 9.33306C1.0456 9.16712 0.91952 8.93941 0.896 8.69496L0.196 2.47253Z" fill="#EF3054"/>
</svg>
