<svg width="207" height="41" viewBox="0 0 207 41" fill="none" xmlns="http://www.w3.org/2000/svg">
<path d="M0 5C0 2.23858 2.23858 0 5 0H202C204.761 0 207 2.23858 207 5V36C207 38.7614 204.761 41 202 41H5C2.23858 41 0 38.7614 0 36V5Z" fill="#FFFDFD"/>
<path d="M28.575 15.75H29.375V17.45C30.1417 16.1333 31.375 15.475 33.075 15.475C33.8917 15.475 34.6 15.7083 35.2 16.175C35.8 16.625 36.2167 17.3083 36.45 18.225C36.6667 17.4083 37.1417 16.75 37.875 16.25C38.625 15.7333 39.4667 15.475 40.4 15.475C41.6167 15.475 42.5583 15.8333 43.225 16.55C43.8917 17.25 44.225 18.25 44.225 19.55V27H43.425V19.55C43.425 18.5 43.15 17.675 42.6 17.075C42.0667 16.475 41.3583 16.175 40.475 16.175C39.8083 16.175 39.1917 16.3417 38.625 16.675C38.0583 16.9917 37.6083 17.425 37.275 17.975C36.9417 18.525 36.775 19.1333 36.775 19.8V27H35.975V20C35.975 18.8 35.6917 17.8667 35.125 17.2C34.5583 16.5167 33.825 16.175 32.925 16.175C32.325 16.175 31.75 16.325 31.2 16.625C30.6667 16.925 30.225 17.3333 29.875 17.85C29.5417 18.35 29.375 18.9 29.375 19.5V27H28.575V15.75ZM48.3488 13.175C48.1155 13.175 47.9072 13.0917 47.7238 12.925C47.5572 12.7583 47.4738 12.55 47.4738 12.3C47.4738 12.0667 47.5572 11.8667 47.7238 11.7C47.9072 11.5333 48.1155 11.45 48.3488 11.45C48.5822 11.45 48.7822 11.5333 48.9488 11.7C49.1322 11.8667 49.2238 12.0667 49.2238 12.3C49.2238 12.55 49.1322 12.7583 48.9488 12.925C48.7822 13.0917 48.5822 13.175 48.3488 13.175ZM47.9488 15.75H48.7488V27H47.9488V15.75ZM52.4764 15.75H53.2764V18.25C53.643 17.4167 54.268 16.75 55.1514 16.25C56.0347 15.7333 57.0097 15.475 58.0764 15.475C59.4597 15.475 60.5514 15.9167 61.3514 16.8C62.168 17.6667 62.5764 18.8833 62.5764 20.45V27H61.7764V20.45C61.7764 19.1 61.443 18.05 60.7764 17.3C60.1264 16.55 59.2097 16.175 58.0264 16.175C57.1597 16.175 56.3597 16.375 55.6264 16.775C54.9097 17.1583 54.3347 17.6917 53.9014 18.375C53.4847 19.0583 53.2764 19.8333 53.2764 20.7V27H52.4764V15.75ZM71.0332 27.275C69.9665 27.275 68.9749 27.0083 68.0582 26.475C67.1415 25.9417 66.4165 25.225 65.8832 24.325C65.3499 23.4083 65.0832 22.425 65.0832 21.375C65.0832 20.325 65.3499 19.35 65.8832 18.45C66.4165 17.5333 67.1415 16.8083 68.0582 16.275C68.9749 15.7417 69.9665 15.475 71.0332 15.475C72.1165 15.475 73.1415 15.7667 74.1082 16.35C75.0749 16.9167 75.7499 17.6583 76.1332 18.575V15.75H76.9332V27H76.1332V24.2C75.6832 25.1333 74.9832 25.8833 74.0332 26.45C73.0999 27 72.0999 27.275 71.0332 27.275ZM71.0832 26.575C71.9999 26.575 72.8499 26.3417 73.6332 25.875C74.4165 25.3917 75.0332 24.7583 75.4832 23.975C75.9499 23.175 76.1832 22.3083 76.1832 21.375C76.1832 20.4583 75.9499 19.6 75.4832 18.8C75.0165 18 74.3915 17.3667 73.6082 16.9C72.8249 16.4167 71.9749 16.175 71.0582 16.175C70.1415 16.175 69.2832 16.4167 68.4832 16.9C67.6999 17.3833 67.0665 18.025 66.5832 18.825C66.1165 19.625 65.8832 20.4833 65.8832 21.4C65.8832 22.3167 66.1165 23.175 66.5832 23.975C67.0665 24.7583 67.7082 25.3917 68.5082 25.875C69.3082 26.3417 70.1665 26.575 71.0832 26.575Z" fill="#464646"/>
<path d="M84.7764 18.2417C84.9131 18.0252 85.027 17.7575 85.1182 17.4385C85.2207 17.1195 85.272 16.8005 85.272 16.4814C85.272 16.0941 85.1751 15.758 84.9814 15.4731C84.7878 15.1883 84.4403 15.0459 83.939 15.0459C83.6086 15.0459 83.2725 15.1655 82.9307 15.4048C82.5889 15.644 82.2699 16.0029 81.9736 16.4814C81.6888 16.96 81.4552 17.5638 81.2729 18.293C81.0907 19.0221 80.9995 19.8766 80.9995 20.8564C80.9995 21.6312 81.0793 22.3376 81.2388 22.9756C81.3983 23.6136 81.6318 24.1605 81.9395 24.6162C82.2471 25.0719 82.6174 25.4308 83.0503 25.6929C83.4946 25.9435 83.9902 26.0688 84.5371 26.0688C84.9359 26.0688 85.3403 25.9663 85.7505 25.7612C86.172 25.5562 86.5936 25.2371 87.0151 24.8042C87.4481 24.3713 87.8924 23.813 88.3481 23.1294C88.8039 22.4344 89.271 21.6084 89.7495 20.6514L89.9204 20.2925L90.6211 20.8223L90.4502 21.1812C89.835 22.4002 89.2197 23.4427 88.6045 24.3086C88.0007 25.1745 87.4025 25.8809 86.8101 26.4277C86.2176 26.9746 85.6366 27.3734 85.0669 27.624C84.5086 27.8747 83.9674 28 83.4434 28C82.7028 28 82.042 27.8462 81.4609 27.5386C80.8799 27.231 80.39 26.8151 79.9912 26.291C79.5924 25.7555 79.2848 25.1403 79.0684 24.4453C78.8633 23.7389 78.7607 22.9984 78.7607 22.2236C78.7607 20.9932 78.9259 19.8766 79.2563 18.874C79.5981 17.86 80.0368 16.9941 80.5723 16.2764C81.1077 15.5586 81.7116 15.0003 82.3838 14.6016C83.056 14.2028 83.7339 14.0034 84.4175 14.0034C84.9416 14.0034 85.3802 14.0775 85.7334 14.2256C86.0866 14.3737 86.3714 14.5617 86.5879 14.7896C86.8044 15.0174 86.9582 15.2624 87.0493 15.5244C87.1405 15.7865 87.186 16.0371 87.186 16.2764C87.186 16.5156 87.1348 16.7663 87.0322 17.0283C86.9297 17.279 86.7759 17.5182 86.5708 17.7461C86.3771 17.9626 86.1436 18.1619 85.8701 18.3442C85.5967 18.5151 85.2891 18.6405 84.9473 18.7202L84.7764 18.2417ZM100.294 23.7617C100.294 24.4111 100.351 24.958 100.465 25.4023C100.579 25.8467 100.778 26.0688 101.063 26.0688C101.234 26.0688 101.416 25.9891 101.61 25.8296C101.815 25.6587 102.049 25.3853 102.311 25.0093C102.573 24.6333 102.869 24.1491 103.199 23.5566C103.541 22.9528 103.928 22.2179 104.361 21.3521L104.874 20.2925L105.575 20.8223L105.062 21.8818C104.583 22.8389 104.133 23.6991 103.712 24.4624C103.302 25.2144 102.909 25.8524 102.533 26.3765C102.157 26.9006 101.786 27.305 101.422 27.5898C101.069 27.8633 100.715 28 100.362 28C99.9863 28 99.6673 27.8975 99.4053 27.6924C99.1546 27.4873 98.9438 27.2082 98.7729 26.855C98.6021 26.4904 98.471 26.0745 98.3799 25.6074C98.2887 25.1289 98.2261 24.6219 98.1919 24.0864C97.9185 24.6333 97.6165 25.146 97.2861 25.6245C96.9557 26.0916 96.6082 26.5018 96.2437 26.855C95.8905 27.2082 95.5202 27.4873 95.1328 27.6924C94.7454 27.8975 94.3581 28 93.9707 28C93.401 28 92.8485 27.8804 92.313 27.6411C91.7775 27.4019 91.299 27.0373 90.8774 26.5474C90.4673 26.0575 90.1369 25.4422 89.8862 24.7017C89.6356 23.9497 89.5103 23.0667 89.5103 22.0527C89.5103 20.8678 89.6641 19.7855 89.9717 18.8057C90.2793 17.8145 90.6951 16.9657 91.2192 16.2593C91.7433 15.5415 92.3472 14.9889 93.0308 14.6016C93.7144 14.2028 94.4321 14.0034 95.1841 14.0034C95.6398 14.0034 96.0614 14.106 96.4487 14.311C96.8361 14.5161 97.1722 14.7668 97.457 15.063C97.7533 15.3478 97.9982 15.6554 98.1919 15.9858C98.3856 16.3049 98.5166 16.5783 98.585 16.8062L98.79 15.1484C98.8128 14.932 98.9154 14.7497 99.0977 14.6016C99.2913 14.4535 99.5021 14.3395 99.73 14.2598C99.9578 14.1686 100.18 14.106 100.396 14.0718C100.613 14.0262 100.767 14.0034 100.858 14.0034C100.995 14.0034 101.086 14.0262 101.131 14.0718C101.177 14.1174 101.2 14.2085 101.2 14.3452C101.2 14.5161 101.148 14.8636 101.046 15.3877C100.955 15.9004 100.852 16.5612 100.738 17.3701C100.636 18.1676 100.533 19.1076 100.431 20.1899C100.34 21.2723 100.294 22.4629 100.294 23.7617ZM98.4141 19.25C98.4141 18.7259 98.3343 18.2132 98.1748 17.7119C98.0153 17.1992 97.7988 16.7492 97.5254 16.3618C97.252 15.9631 96.9329 15.644 96.5684 15.4048C96.2152 15.1655 95.8392 15.0459 95.4404 15.0459C94.9505 15.0459 94.4891 15.1883 94.0562 15.4731C93.6346 15.7466 93.2643 16.1396 92.9453 16.6523C92.6377 17.1536 92.3927 17.7632 92.2104 18.481C92.0282 19.1873 91.937 19.9678 91.937 20.8223C91.937 22.5312 92.2048 23.8358 92.7402 24.7358C93.2757 25.6245 93.9878 26.0688 94.8765 26.0688C95.2638 26.0688 95.6626 25.915 96.0728 25.6074C96.4943 25.2884 96.876 24.8384 97.2178 24.2573C97.571 23.6649 97.8558 22.9471 98.0723 22.104C98.3001 21.2609 98.4141 20.3096 98.4141 19.25ZM108.343 28C107.648 28 107.044 27.8519 106.532 27.5557C106.03 27.2594 105.615 26.8607 105.284 26.3594C104.954 25.8467 104.709 25.2599 104.549 24.5991C104.39 23.9383 104.31 23.2376 104.31 22.4971C104.31 21.8477 104.373 21.1868 104.498 20.5146C104.623 19.8424 104.8 19.193 105.028 18.5664C105.267 17.9284 105.563 17.3359 105.917 16.7891C106.27 16.2308 106.674 15.7466 107.13 15.3364C107.586 14.9263 108.093 14.6016 108.651 14.3623C109.221 14.123 109.83 14.0034 110.479 14.0034C111.22 14.0034 111.847 14.1686 112.359 14.499C112.883 14.8294 113.305 15.2339 113.624 15.7124C113.635 13.5591 113.744 11.6564 113.949 10.0044C114.154 8.35238 114.439 6.9681 114.803 5.85156C115.179 4.73503 115.624 3.89193 116.136 3.32227C116.649 2.74121 117.213 2.45068 117.828 2.45068C118.045 2.45068 118.238 2.47917 118.409 2.53613C118.591 2.58171 118.74 2.67285 118.854 2.80957C118.979 2.94629 119.07 3.13428 119.127 3.37354C119.195 3.6014 119.229 3.89762 119.229 4.26221C119.229 5.01416 119.155 5.88005 119.007 6.85986C118.859 7.82829 118.648 8.88786 118.375 10.0386C118.102 11.1779 117.765 12.397 117.367 13.6958C116.979 14.9832 116.546 16.3219 116.068 17.7119C116.079 18.931 116.096 19.9849 116.119 20.8735C116.142 21.7622 116.17 22.5142 116.205 23.1294C116.25 23.7446 116.301 24.2459 116.358 24.6333C116.427 25.0207 116.501 25.3226 116.581 25.5391C116.672 25.7441 116.774 25.8866 116.888 25.9663C117.014 26.0347 117.15 26.0688 117.298 26.0688C117.56 26.0688 117.822 25.9549 118.084 25.7271C118.358 25.4878 118.648 25.1403 118.956 24.6846C119.264 24.2174 119.594 23.6478 119.947 22.9756C120.312 22.3034 120.711 21.5286 121.144 20.6514L121.332 20.2925L122.032 20.8223L121.844 21.1812C121.183 22.5142 120.602 23.6193 120.101 24.4966C119.6 25.3625 119.138 26.0575 118.717 26.5815C118.307 27.1056 117.914 27.4759 117.538 27.6924C117.162 27.8975 116.769 28 116.358 28C115.96 28 115.612 27.9032 115.316 27.7095C115.031 27.5044 114.786 27.1911 114.581 26.7695C114.376 26.3366 114.211 25.7897 114.085 25.1289C113.96 24.4567 113.863 23.6535 113.795 22.7192C113.396 23.5168 112.986 24.2402 112.564 24.8896C112.143 25.5391 111.704 26.0973 111.249 26.5645C110.804 27.0202 110.337 27.3734 109.847 27.624C109.357 27.8747 108.856 28 108.343 28ZM110.821 14.875C110.195 14.875 109.648 15.0687 109.181 15.4561C108.714 15.832 108.326 16.3276 108.019 16.9429C107.711 17.5467 107.483 18.2303 107.335 18.9937C107.187 19.757 107.113 20.5203 107.113 21.2837C107.113 21.9103 107.158 22.5142 107.25 23.0952C107.352 23.6649 107.5 24.1719 107.694 24.6162C107.899 25.0605 108.144 25.4137 108.429 25.6758C108.714 25.9378 109.044 26.0688 109.42 26.0688C109.785 26.0688 110.138 25.9777 110.479 25.7954C110.833 25.6131 111.18 25.3226 111.522 24.9238C111.864 24.5137 112.211 23.9896 112.564 23.3516C112.918 22.7021 113.294 21.916 113.692 20.9932C113.67 20.4463 113.653 19.8652 113.641 19.25C113.63 18.6234 113.624 17.9569 113.624 17.2505C113.373 16.5099 112.992 15.9289 112.479 15.5073C111.978 15.0858 111.425 14.875 110.821 14.875ZM117.999 4.89453C117.999 4.37044 117.936 4.00586 117.811 3.80078C117.697 3.5957 117.56 3.49316 117.401 3.49316C117.127 3.49316 116.905 3.7609 116.734 4.29639C116.563 4.82048 116.427 5.53255 116.324 6.43262C116.233 7.33268 116.165 8.37516 116.119 9.56006C116.085 10.745 116.068 11.9925 116.068 13.3027V15.1826C116.421 14.0319 116.723 12.9951 116.974 12.0723C117.224 11.1494 117.424 10.2892 117.572 9.4917C117.72 8.69417 117.828 7.92513 117.896 7.18457C117.965 6.44401 117.999 5.68066 117.999 4.89453ZM126.39 26.0688C126.789 26.0688 127.193 25.9663 127.604 25.7612C128.025 25.5562 128.447 25.2371 128.868 24.8042C129.301 24.3713 129.745 23.813 130.201 23.1294C130.657 22.4344 131.124 21.6084 131.603 20.6514L131.773 20.2925L132.474 20.8223L132.303 21.1812C131.688 22.4002 131.073 23.4427 130.458 24.3086C129.854 25.1745 129.256 25.8809 128.663 26.4277C128.082 26.9746 127.507 27.3734 126.937 27.624C126.367 27.8747 125.82 28 125.296 28C124.556 28 123.895 27.8462 123.314 27.5386C122.733 27.231 122.243 26.8151 121.844 26.291C121.445 25.7555 121.144 25.1403 120.938 24.4453C120.722 23.7389 120.614 22.9984 120.614 22.2236C120.614 20.9932 120.785 19.8766 121.126 18.874C121.457 17.86 121.901 16.9941 122.459 16.2764C123.029 15.5586 123.673 15.0003 124.391 14.6016C125.108 14.2028 125.855 14.0034 126.629 14.0034C127.416 14.0034 128.014 14.2028 128.424 14.6016C128.845 15.0003 129.056 15.5016 129.056 16.1055C129.056 16.6865 128.891 17.2334 128.561 17.7461C128.23 18.2474 127.78 18.743 127.21 19.2329C126.652 19.7114 126.003 20.1899 125.262 20.6685C124.522 21.1356 123.741 21.6198 122.921 22.1211C123.001 22.7135 123.137 23.2547 123.331 23.7446C123.525 24.2231 123.77 24.639 124.066 24.9922C124.362 25.334 124.704 25.6017 125.091 25.7954C125.479 25.9777 125.912 26.0688 126.39 26.0688ZM126.92 16.6182C126.92 16.1624 126.795 15.8035 126.544 15.5415C126.305 15.2795 126.008 15.1484 125.655 15.1484C125.359 15.1484 125.046 15.2567 124.715 15.4731C124.385 15.6782 124.083 16.0143 123.81 16.4814C123.536 16.9372 123.308 17.5239 123.126 18.2417C122.944 18.9595 122.853 19.8311 122.853 20.8564V21.2495C123.24 21.0444 123.667 20.7767 124.134 20.4463C124.613 20.1045 125.057 19.7285 125.467 19.3184C125.877 18.9082 126.219 18.4753 126.493 18.0195C126.778 17.5524 126.92 17.0853 126.92 16.6182ZM137.345 15.2168C137.014 15.2168 136.695 15.3364 136.388 15.5757C136.091 15.8035 135.807 16.1226 135.533 16.5327C135.26 16.9315 134.992 17.4043 134.73 17.9512C134.479 18.4867 134.229 19.062 133.978 19.6772V19.8823C133.944 20.8849 133.91 21.9502 133.875 23.0781C133.853 24.2061 133.841 25.4365 133.841 26.7695C133.841 26.9974 133.762 27.1911 133.602 27.3506C133.454 27.4987 133.277 27.624 133.072 27.7266C132.867 27.8177 132.656 27.8861 132.44 27.9316C132.223 27.9772 132.047 28 131.91 28C131.739 28 131.58 27.9487 131.432 27.8462C131.284 27.7437 131.209 27.5158 131.209 27.1626C131.209 26.9917 131.227 26.7809 131.261 26.5303C131.295 26.2682 131.34 25.9891 131.397 25.6929C131.443 25.3966 131.5 25.0947 131.568 24.7871C131.625 24.4681 131.682 24.1719 131.739 23.8984C131.739 22.93 131.739 22.0584 131.739 21.2837C131.728 20.509 131.722 19.8197 131.722 19.2158C131.722 18.612 131.722 18.0822 131.722 17.6265C131.711 17.1707 131.705 16.7777 131.705 16.4473C131.705 15.9004 131.716 15.5016 131.739 15.251C131.751 14.9889 131.773 14.8066 131.808 14.7041C131.865 14.5446 131.967 14.4193 132.115 14.3281C132.275 14.237 132.44 14.1686 132.611 14.123C132.782 14.0661 132.953 14.0319 133.124 14.0205C133.294 14.0091 133.425 14.0034 133.517 14.0034C133.733 14.0034 133.875 14.0661 133.944 14.1914C134.012 14.3167 134.046 14.5104 134.046 14.7725C134.046 15.3649 134.046 15.9004 134.046 16.3789C134.046 16.8574 134.035 17.3359 134.012 17.8145C134.229 17.3018 134.479 16.8175 134.764 16.3618C135.06 15.8947 135.385 15.4902 135.738 15.1484C136.091 14.7952 136.462 14.5161 136.849 14.311C137.248 14.106 137.658 14.0034 138.08 14.0034C138.592 14.0034 139.014 14.1117 139.344 14.3281C139.686 14.5332 139.954 14.8237 140.147 15.1997C140.353 15.5757 140.501 16.02 140.592 16.5327C140.694 17.034 140.763 17.5809 140.797 18.1733C141.116 17.5923 141.458 17.0511 141.822 16.5498C142.198 16.0371 142.591 15.5928 143.001 15.2168C143.423 14.8408 143.862 14.5446 144.317 14.3281C144.785 14.1117 145.269 14.0034 145.77 14.0034C146.636 14.0034 147.268 14.2769 147.667 14.8237C148.066 15.3592 148.265 16.0884 148.265 17.0112C148.265 17.5923 148.22 18.2417 148.128 18.9595C148.037 19.6772 147.94 20.4064 147.838 21.147C147.735 21.8761 147.639 22.5939 147.547 23.3003C147.456 24.0067 147.411 24.6504 147.411 25.2314C147.411 25.9378 147.587 26.291 147.94 26.291C148.123 26.291 148.322 26.1828 148.539 25.9663C148.755 25.7384 149 25.3966 149.273 24.9409C149.558 24.4738 149.883 23.887 150.248 23.1807C150.624 22.4743 151.056 21.6312 151.546 20.6514L151.717 20.2925L152.418 20.8223L152.247 21.1812C151.575 22.5256 151 23.6364 150.521 24.5137C150.054 25.391 149.632 26.0916 149.256 26.6157C148.88 27.1284 148.521 27.4873 148.18 27.6924C147.849 27.8975 147.479 28 147.069 28C146.83 28 146.596 27.9658 146.368 27.8975C146.14 27.8291 145.941 27.7095 145.77 27.5386C145.599 27.3677 145.462 27.1398 145.36 26.855C145.257 26.5588 145.206 26.1828 145.206 25.7271C145.206 25.0435 145.252 24.2744 145.343 23.4199C145.434 22.5654 145.536 21.7109 145.65 20.8564C145.764 20.002 145.867 19.1987 145.958 18.4468C146.049 17.6834 146.095 17.0625 146.095 16.584C146.095 16.1624 146.004 15.8263 145.821 15.5757C145.639 15.3136 145.366 15.1826 145.001 15.1826C144.636 15.1826 144.255 15.325 143.856 15.6099C143.469 15.8947 143.087 16.265 142.711 16.7207C142.346 17.165 141.999 17.6663 141.668 18.2246C141.349 18.7829 141.07 19.3354 140.831 19.8823C140.831 21.0786 140.82 22.1268 140.797 23.0269C140.774 23.9155 140.74 24.6675 140.694 25.2827C140.66 25.8979 140.609 26.3879 140.541 26.7524C140.472 27.1056 140.398 27.3449 140.318 27.4702C140.261 27.55 140.165 27.624 140.028 27.6924C139.891 27.7607 139.737 27.8177 139.566 27.8633C139.407 27.9089 139.247 27.943 139.088 27.9658C138.94 27.9886 138.826 28 138.746 28C138.564 28 138.404 27.9487 138.268 27.8462C138.142 27.7323 138.08 27.5158 138.08 27.1968C138.08 27.0487 138.091 26.8493 138.114 26.5986C138.148 26.348 138.188 26.0688 138.233 25.7612C138.279 25.4536 138.33 25.1232 138.387 24.77C138.444 24.4168 138.501 24.0579 138.558 23.6934C138.569 23.3516 138.581 22.9699 138.592 22.5483C138.604 22.1268 138.615 21.7109 138.626 21.3008C138.638 20.8792 138.644 20.4805 138.644 20.1045C138.655 19.7171 138.661 19.3867 138.661 19.1133C138.661 18.5322 138.644 18.0024 138.609 17.5239C138.575 17.0454 138.507 16.6353 138.404 16.2935C138.313 15.9517 138.182 15.6896 138.011 15.5073C137.84 15.3136 137.618 15.2168 137.345 15.2168ZM152.811 14.4819C152.857 14.368 152.965 14.2769 153.136 14.2085C153.307 14.1401 153.489 14.0946 153.683 14.0718C153.876 14.0376 154.059 14.0205 154.229 14.0205C154.4 14.0091 154.514 14.0034 154.571 14.0034C154.742 14.0034 154.85 14.049 154.896 14.1401C154.953 14.2199 154.981 14.3509 154.981 14.5332C154.981 14.6243 154.953 14.8294 154.896 15.1484C154.839 15.4561 154.765 15.8434 154.674 16.3105C154.594 16.7777 154.503 17.3075 154.4 17.8999C154.309 18.4924 154.218 19.1019 154.127 19.7285C154.047 20.3551 153.979 20.9932 153.922 21.6426C153.865 22.2806 153.836 22.8844 153.836 23.4541C153.836 24.4453 154.002 25.1916 154.332 25.6929C154.662 26.1828 155.044 26.4277 155.477 26.4277C156.229 26.4277 156.896 25.8752 157.477 24.77C158.058 23.6649 158.661 22.047 159.288 19.9165V14.9434C159.288 14.7497 159.374 14.5959 159.544 14.4819C159.727 14.3566 159.932 14.2598 160.16 14.1914C160.388 14.123 160.61 14.0775 160.826 14.0547C161.043 14.0205 161.196 14.0034 161.288 14.0034C161.641 14.0034 161.817 14.18 161.817 14.5332C161.817 14.6585 161.806 14.8693 161.783 15.1655C161.772 15.4504 161.755 15.7922 161.732 16.1909C161.709 16.5783 161.686 17.0112 161.664 17.4897C161.652 17.9569 161.646 18.4297 161.646 18.9082V25.8638C161.852 25.6017 162.108 25.2542 162.416 24.8213C162.735 24.3883 163.059 23.9269 163.39 23.437C163.731 22.9471 164.056 22.4572 164.364 21.9673C164.683 21.4774 164.939 21.0387 165.133 20.6514L165.321 20.2925L166.021 20.8223L165.833 21.1812C165.594 21.6597 165.309 22.1553 164.979 22.668C164.649 23.1807 164.295 23.6991 163.919 24.2231C163.555 24.7358 163.173 25.2485 162.774 25.7612C162.387 26.2625 162.011 26.741 161.646 27.1968V30.9736C161.646 32.0218 161.55 32.9105 161.356 33.6396C161.174 34.3802 160.917 34.9784 160.587 35.4341C160.257 35.9012 159.869 36.2373 159.425 36.4424C158.98 36.6475 158.496 36.75 157.972 36.75C157.642 36.75 157.334 36.6987 157.049 36.5962C156.776 36.4937 156.537 36.3398 156.332 36.1348C156.126 35.9411 155.967 35.7018 155.853 35.417C155.739 35.1436 155.682 34.8302 155.682 34.4771C155.682 33.9644 155.773 33.4517 155.956 32.939C156.149 32.4263 156.411 31.8965 156.742 31.3496C157.083 30.8027 157.477 30.2388 157.921 29.6577C158.365 29.0881 158.844 28.4899 159.356 27.8633V22.6851C159.072 23.4598 158.764 24.1776 158.434 24.8384C158.103 25.4878 157.744 26.0461 157.357 26.5132C156.97 26.9803 156.554 27.3449 156.109 27.6069C155.665 27.869 155.187 28 154.674 28C154.309 28 153.933 27.943 153.546 27.8291C153.17 27.7038 152.817 27.4816 152.486 27.1626C152.167 26.8436 151.905 26.4163 151.7 25.8809C151.495 25.334 151.393 24.639 151.393 23.7959C151.393 22.8389 151.45 21.8647 151.563 20.8735C151.677 19.8823 151.808 18.9595 151.957 18.105C152.116 17.2505 152.276 16.5042 152.435 15.8662C152.595 15.2168 152.72 14.7554 152.811 14.4819ZM157.784 35.7075C157.966 35.7075 158.149 35.6676 158.331 35.5879C158.525 35.5195 158.696 35.3543 158.844 35.0923C158.992 34.8302 159.111 34.4429 159.203 33.9302C159.305 33.4175 159.356 32.7225 159.356 31.8452V29.2646C158.969 29.7432 158.61 30.2046 158.28 30.6489C157.961 31.1047 157.682 31.5433 157.442 31.9648C157.203 32.3978 157.015 32.8136 156.878 33.2124C156.742 33.6112 156.673 33.9985 156.673 34.3745C156.673 34.7277 156.77 35.0353 156.964 35.2974C157.158 35.5708 157.431 35.7075 157.784 35.7075Z" fill="#6C0785"/>
<path d="M25.7 17.675L18.675 21.8L25.7 25.95V26.775L17.875 22.15V21.425L25.7 16.85V17.675Z" fill="#464646"/>
<path d="M177.925 11.3H178.9L164.925 30H164L177.925 11.3ZM188.593 19.425V20.15L180.768 24.775V23.95L187.793 19.8L180.768 15.675V14.85L188.593 19.425Z" fill="#464646"/>
</svg>
