<svg width="20" height="23" viewBox="0 0 20 23" fill="none" xmlns="http://www.w3.org/2000/svg">
<path d="M20 18.619V19.7143H0V18.619L2.22222 16.4286V9.85714C2.22222 6.46191 4.47778 3.4719 7.77778 2.5081V2.19048C7.77778 1.60953 8.0119 1.05237 8.42865 0.641576C8.8454 0.230782 9.41063 0 10 0C10.5894 0 11.1546 0.230782 11.5713 0.641576C11.9881 1.05237 12.2222 1.60953 12.2222 2.19048V2.5081C15.5222 3.4719 17.7778 6.46191 17.7778 9.85714V16.4286L20 18.619ZM12.2222 20.8095C12.2222 21.3905 11.9881 21.9476 11.5713 22.3584C11.1546 22.7692 10.5894 23 10 23C9.41063 23 8.8454 22.7692 8.42865 22.3584C8.0119 21.9476 7.77778 21.3905 7.77778 20.8095" fill="#3E2753"/>
</svg>
