<svg width="473" height="524" viewBox="0 0 473 524" fill="none" xmlns="http://www.w3.org/2000/svg">
<path d="M389.653 206.032C406.194 206.032 419.603 192.625 419.603 176.087C419.603 159.549 406.194 146.142 389.653 146.142C373.112 146.142 359.703 159.549 359.703 176.087C359.703 192.625 373.112 206.032 389.653 206.032Z" fill="#2F2E41"/>
<path d="M397.997 146.967C403.18 146.967 408.275 148.313 412.782 150.871C417.289 153.43 421.056 157.114 423.713 161.564C426.369 166.014 427.826 171.077 427.94 176.258C428.054 181.439 426.821 186.561 424.362 191.123C426.959 187.875 428.85 184.121 429.915 180.102C430.981 176.083 431.197 171.885 430.551 167.778C429.904 163.67 428.409 159.742 426.16 156.244C423.912 152.746 420.959 149.755 417.49 147.461C414.021 145.167 410.112 143.621 406.013 142.921C401.913 142.221 397.713 142.383 393.679 143.396C389.645 144.408 385.867 146.25 382.585 148.804C379.302 151.358 376.588 154.567 374.615 158.227C377.414 154.713 380.971 151.875 385.019 149.926C389.068 147.976 393.504 146.965 397.997 146.967Z" fill="#2F2E41"/>
<path d="M333.688 176.024C382.276 176.024 421.665 136.641 421.665 88.0605C421.665 39.4797 382.276 0.097168 333.688 0.097168C285.099 0.097168 245.711 39.4797 245.711 88.0605C245.711 136.641 285.099 176.024 333.688 176.024Z" fill="#2F2E41"/>
<path d="M264.64 33.4833C279.799 16.4374 300.989 5.94703 323.738 4.22621C346.486 2.50539 369.014 9.68875 386.565 24.2602C385.846 23.5764 385.134 22.8871 384.386 22.2227C366.947 6.72894 344.067 -1.20477 320.778 0.166409C297.489 1.53759 275.698 12.1014 260.198 29.5345C244.697 46.9676 236.757 69.8425 238.123 93.1283C239.489 116.414 250.05 138.204 267.482 153.706C268.23 154.37 268.998 154.996 269.761 155.63C253.232 139.909 243.458 118.382 242.503 95.592C241.547 72.8021 249.485 50.5325 264.64 33.4833Z" fill="#2F2E41"/>
<path d="M332.942 175.278C364.236 175.278 389.605 149.913 389.605 118.624C389.605 87.3347 364.236 61.9697 332.942 61.9697C301.648 61.9697 276.279 87.3347 276.279 118.624C276.279 149.913 301.648 175.278 332.942 175.278Z" fill="#FFB8B8"/>
<path d="M292.682 136.515C292.682 136.515 300.137 205.096 288.208 212.551C276.279 220.005 356.801 230.442 356.801 230.442C356.801 230.442 344.871 155.897 374.694 136.515H292.682Z" fill="#FFB8B8"/>
<path d="M364.256 200.624C364.256 200.624 386.46 190.257 354.482 193.949C322.504 197.642 294.915 183.478 294.915 183.478C294.915 183.478 285.226 173.787 283.735 184.224C282.244 194.66 288.208 214.042 255.403 217.024C222.598 220.005 192.776 211.06 180.846 233.423C168.917 255.787 174.882 352.696 174.882 352.696C174.882 352.696 197.249 433.205 215.143 445.132C233.036 457.059 389.605 440.659 389.605 440.659L434.34 360.15V266.223C434.34 266.223 428.375 233.423 386.623 242.369C386.623 242.369 359.783 236.405 361.274 222.987C362.765 209.569 364.256 200.624 364.256 200.624Z" fill="#D0CDE1"/>
<path d="M221.06 502.106C221.982 498.091 222.599 495.82 222.599 495.82L222.122 492.554L217.209 459.199L215.144 445.13C233.033 437.676 237.51 403.383 237.51 403.383L238.185 402.98L241.237 401.154V401.145L252.198 394.572L252.421 394.44L256.848 397.385L265.842 403.383C297.309 426.519 329.352 426.108 349.126 422.463C361.215 420.233 368.728 416.803 368.728 416.803L390.419 409.57L391.094 409.348L391.76 409.447L404.482 411.372L404.712 411.413L405.766 411.57L402.82 431.933L398.549 461.528C409.831 467.501 419.862 478.723 428.634 492.554C430.576 495.615 432.457 498.799 434.279 502.106C436.649 506.385 438.912 510.836 441.068 515.394C441.331 515.937 441.586 516.488 441.841 517.039C442.672 518.825 443.495 520.627 444.293 522.437H217.11C217.407 520.618 217.703 518.882 217.991 517.212C218.006 517.155 218.017 517.098 218.024 517.039C218.131 516.48 218.229 515.937 218.32 515.394C219.324 509.964 220.295 505.43 221.06 502.106Z" fill="#2F2E41"/>
<path d="M212.16 215.533C212.16 215.533 228.563 245.351 222.598 282.623C216.634 319.896 240.492 412.332 240.492 412.332L258.386 407.859C258.386 407.859 246.456 330.332 249.439 312.441C252.421 294.551 252.421 224.478 237.51 215.533C222.598 206.587 212.16 215.533 212.16 215.533Z" fill="#2F2E41"/>
<path d="M385.574 246.52L391.842 411.587L403.771 419.041C403.771 419.041 420.919 237.896 411.973 237.896H393.768C392.655 237.896 391.554 238.123 390.532 238.561C389.509 239 388.587 239.643 387.82 240.449C387.054 241.256 386.459 242.21 386.073 243.254C385.687 244.297 385.517 245.408 385.574 246.52Z" fill="#2F2E41"/>
<path d="M248.693 408.605C252.811 408.605 256.149 405.267 256.149 401.15C256.149 397.033 252.811 393.696 248.693 393.696C244.575 393.696 241.237 397.033 241.237 401.15C241.237 405.267 244.575 408.605 248.693 408.605Z" fill="#6C63FF"/>
<path d="M397.807 416.059C401.924 416.059 405.262 412.722 405.262 408.605C405.262 404.488 401.924 401.15 397.807 401.15C393.689 401.15 390.351 404.488 390.351 408.605C390.351 412.722 393.689 416.059 397.807 416.059Z" fill="#6C63FF"/>
<path d="M284.48 47.8057V104.46H297.603L314.303 86.5692L312.067 104.46H370.071L366.493 86.5692L373.65 104.46H382.895V47.8057H284.48Z" fill="#2F2E41"/>
<path d="M275.534 114.897C278.004 114.897 280.007 111.226 280.007 106.697C280.007 102.168 278.004 98.4968 275.534 98.4968C273.063 98.4968 271.06 102.168 271.06 106.697C271.06 111.226 273.063 114.897 275.534 114.897Z" fill="#FFB8B8"/>
<path d="M390.351 114.897C392.822 114.897 394.825 111.226 394.825 106.697C394.825 102.168 392.822 98.4968 390.351 98.4968C387.881 98.4968 385.878 102.168 385.878 106.697C385.878 111.226 387.881 114.897 390.351 114.897Z" fill="#FFB8B8"/>
<path d="M420.919 407.859C420.919 407.859 353.073 395.187 348.599 417.55C344.126 439.914 423.902 430.223 423.902 430.223L420.919 407.859Z" fill="#FFB8B8"/>
<path d="M419.428 254.296C419.428 254.296 581.962 384.005 552.139 415.314C522.317 446.623 408.99 437.677 408.99 437.677L416.446 400.405L482.056 392.95L449.251 360.15L419.428 363.132V254.296Z" fill="#D0CDE1"/>
<path d="M179.355 470.477L200.231 486.877C200.231 486.877 215.142 533.095 237.51 519.677C259.877 506.259 216.634 458.55 216.634 458.55L191.284 449.604L179.355 470.477Z" fill="#FFB8B8"/>
<path d="M200.231 230.442L179.412 236.706C179.412 236.706 34.715 343.75 28.7505 373.568C22.7859 403.386 57.0821 419.786 57.0821 419.786L186.811 480.913L200.231 445.132L139.095 413.823C139.095 413.823 143.568 404.877 125.674 403.386C107.781 401.896 104.798 382.514 104.798 382.514C104.798 382.514 140.586 327.35 159.97 339.278C179.355 351.205 185.32 360.15 185.32 360.15L200.231 230.442Z" fill="#D0CDE1"/>
<path d="M497.18 507.216V512.21C497.183 513.581 496.929 514.94 496.432 516.217C496.211 516.786 495.944 517.336 495.633 517.862C494.653 519.508 493.261 520.871 491.595 521.817C489.929 522.763 488.045 523.26 486.129 523.26H118.668C116.752 523.26 114.869 522.763 113.202 521.817C111.536 520.871 110.145 519.508 109.164 517.862C108.854 517.336 108.587 516.786 108.366 516.217C107.868 514.94 107.614 513.581 107.617 512.21V507.216C107.616 505.765 107.902 504.328 108.457 502.987C109.013 501.646 109.827 500.428 110.853 499.402C111.879 498.375 113.098 497.562 114.439 497.006C115.78 496.451 117.217 496.166 118.668 496.166H139.849V493.838C139.849 493.777 139.861 493.717 139.884 493.661C139.907 493.605 139.941 493.554 139.984 493.512C140.027 493.469 140.078 493.435 140.134 493.412C140.19 493.389 140.25 493.377 140.31 493.377H151.362C151.422 493.377 151.482 493.389 151.538 493.412C151.594 493.435 151.645 493.469 151.688 493.512C151.73 493.554 151.764 493.605 151.788 493.661C151.811 493.717 151.823 493.777 151.822 493.838V496.166H158.726V493.838C158.726 493.777 158.738 493.717 158.761 493.661C158.784 493.605 158.818 493.554 158.861 493.512C158.904 493.469 158.955 493.435 159.011 493.412C159.067 493.389 159.127 493.377 159.187 493.377H170.239C170.299 493.377 170.359 493.389 170.415 493.412C170.471 493.435 170.522 493.469 170.565 493.512C170.608 493.554 170.641 493.605 170.665 493.661C170.688 493.717 170.7 493.777 170.699 493.838V496.166H177.612V493.838C177.612 493.777 177.623 493.717 177.647 493.661C177.67 493.605 177.704 493.554 177.746 493.512C177.789 493.469 177.84 493.435 177.896 493.412C177.952 493.389 178.012 493.377 178.073 493.377H189.124C189.184 493.377 189.244 493.389 189.3 493.412C189.356 493.435 189.407 493.469 189.45 493.512C189.493 493.554 189.527 493.605 189.55 493.661C189.573 493.717 189.585 493.777 189.585 493.838V496.166H196.489V493.838C196.489 493.777 196.501 493.717 196.524 493.661C196.547 493.605 196.581 493.554 196.624 493.512C196.666 493.469 196.717 493.435 196.773 493.412C196.829 493.389 196.889 493.377 196.95 493.377H208.001C208.062 493.377 208.121 493.389 208.177 493.412C208.233 493.435 208.284 493.469 208.327 493.512C208.37 493.554 208.404 493.605 208.427 493.661C208.45 493.717 208.462 493.777 208.462 493.838V496.166H215.366V493.838C215.366 493.777 215.378 493.717 215.401 493.661C215.424 493.605 215.458 493.554 215.501 493.512C215.543 493.469 215.594 493.435 215.65 493.412C215.706 493.389 215.766 493.377 215.827 493.377H226.878C226.939 493.377 226.999 493.389 227.055 493.412C227.11 493.435 227.161 493.469 227.204 493.512C227.247 493.554 227.281 493.605 227.304 493.661C227.327 493.717 227.339 493.777 227.339 493.838V496.166H234.251V493.838C234.251 493.777 234.263 493.717 234.286 493.661C234.309 493.605 234.343 493.554 234.386 493.512C234.429 493.469 234.48 493.435 234.535 493.412C234.591 493.389 234.651 493.377 234.712 493.377H245.763C245.824 493.377 245.884 493.389 245.94 493.412C245.996 493.435 246.047 493.469 246.089 493.512C246.132 493.554 246.166 493.605 246.189 493.661C246.212 493.717 246.224 493.777 246.224 493.838V496.166H253.128V493.838C253.128 493.777 253.14 493.717 253.163 493.661C253.186 493.605 253.22 493.554 253.263 493.512C253.306 493.469 253.357 493.435 253.413 493.412C253.468 493.389 253.528 493.377 253.589 493.377H340.157C340.217 493.377 340.277 493.389 340.333 493.412C340.389 493.435 340.44 493.469 340.483 493.512C340.526 493.554 340.56 493.605 340.583 493.661C340.606 493.717 340.618 493.777 340.618 493.838V496.166H347.53V493.838C347.53 493.777 347.542 493.717 347.565 493.661C347.588 493.605 347.622 493.554 347.665 493.512C347.707 493.469 347.758 493.435 347.814 493.412C347.87 493.389 347.93 493.377 347.991 493.377H359.042C359.164 493.378 359.281 493.427 359.367 493.513C359.453 493.599 359.502 493.716 359.503 493.838V496.166H366.407V493.838C366.407 493.777 366.419 493.717 366.442 493.661C366.465 493.605 366.499 493.554 366.542 493.512C366.585 493.469 366.635 493.435 366.691 493.412C366.747 493.389 366.807 493.377 366.868 493.377H377.919C377.98 493.377 378.04 493.389 378.096 493.412C378.152 493.435 378.202 493.469 378.245 493.512C378.288 493.554 378.322 493.605 378.345 493.661C378.368 493.717 378.38 493.777 378.38 493.838V496.166H385.284V493.838C385.284 493.777 385.296 493.717 385.319 493.661C385.342 493.605 385.376 493.554 385.419 493.512C385.462 493.469 385.512 493.435 385.568 493.412C385.624 493.389 385.684 493.377 385.745 493.377H396.796C396.857 493.377 396.917 493.389 396.973 493.412C397.029 493.435 397.079 493.469 397.122 493.512C397.165 493.554 397.199 493.605 397.222 493.661C397.245 493.717 397.257 493.777 397.257 493.838V496.166H404.169V493.838C404.169 493.777 404.181 493.717 404.204 493.661C404.227 493.605 404.261 493.554 404.304 493.512C404.347 493.469 404.398 493.435 404.454 493.412C404.51 493.389 404.57 493.377 404.63 493.377H415.682C415.803 493.378 415.918 493.428 416.003 493.514C416.088 493.6 416.135 493.717 416.134 493.838V496.166H423.046V493.838C423.046 493.777 423.058 493.717 423.081 493.661C423.104 493.605 423.138 493.554 423.181 493.512C423.224 493.469 423.275 493.435 423.331 493.412C423.387 493.389 423.447 493.377 423.507 493.377H434.559C434.619 493.377 434.679 493.389 434.735 493.412C434.791 493.435 434.842 493.469 434.885 493.512C434.927 493.554 434.961 493.605 434.985 493.661C435.008 493.717 435.02 493.777 435.019 493.838V496.166H441.923V493.838C441.923 493.777 441.935 493.717 441.958 493.661C441.981 493.605 442.015 493.554 442.058 493.512C442.101 493.469 442.152 493.435 442.208 493.412C442.264 493.389 442.324 493.377 442.384 493.377H453.436C453.496 493.377 453.556 493.389 453.612 493.412C453.668 493.435 453.719 493.469 453.762 493.512C453.805 493.554 453.839 493.605 453.862 493.661C453.885 493.717 453.897 493.777 453.896 493.838V496.166H486.129C487.58 496.166 489.018 496.451 490.359 497.006C491.7 497.562 492.918 498.375 493.944 499.402C494.971 500.428 495.785 501.646 496.34 502.987C496.895 504.328 497.181 505.765 497.18 507.216Z" fill="#3F3D56"/>
<path d="M604.031 516.213H0.85376V517.858H604.031V516.213Z" fill="#3F3D56"/>
<path d="M467.591 296.89H330.627V294.068H268.523V296.89H130.994C128.537 296.89 126.181 297.866 124.443 299.603C122.706 301.34 121.73 303.697 121.73 306.153V493.67C121.73 496.126 122.706 498.483 124.443 500.22C126.181 501.957 128.537 502.933 130.994 502.933H467.591C470.048 502.933 472.405 501.957 474.142 500.22C475.88 498.483 476.856 496.126 476.856 493.67V306.153C476.856 304.937 476.616 303.732 476.151 302.608C475.685 301.485 475.003 300.463 474.142 299.603C473.282 298.743 472.261 298.061 471.137 297.595C470.013 297.13 468.808 296.89 467.591 296.89Z" fill="#3F3D56"/>
<path d="M299.562 382.926C310.924 382.926 320.134 373.717 320.134 362.357C320.134 350.997 310.924 341.788 299.562 341.788C288.2 341.788 278.99 350.997 278.99 362.357C278.99 373.717 288.2 382.926 299.562 382.926Z" stroke="#D0CDE1" stroke-width="2" stroke-miterlimit="10"/>
<path d="M292.979 390.331C304.341 390.331 313.551 381.122 313.551 369.762C313.551 358.402 304.341 349.193 292.979 349.193C281.617 349.193 272.407 358.402 272.407 369.762C272.407 381.122 281.617 390.331 292.979 390.331Z" fill="#D0CDE1"/>
</svg>
