<svg width="1091" height="957" viewBox="0 0 1091 957" fill="none" xmlns="http://www.w3.org/2000/svg">
<g filter="url(#filter0_d)">
<path d="M731.98 629.325L1241.94 -304.141L-235.112 -32.9165L-345.112 1016.58L436.409 849.668C562.323 822.776 670.252 742.316 731.98 629.325Z" fill="url(#paint0_linear)"/>
<path d="M-234.654 -32.4923L1241 -303.459L731.542 629.085C669.883 741.949 562.076 822.317 436.305 849.179L-344.543 1015.95L-234.654 -32.4923Z" stroke="black"/>
</g>
<path d="M199.68 184H193.408L174.016 153.6C173.419 152.661 172.821 151.552 172.224 150.272C172.352 152.32 172.416 153.429 172.416 153.6V184H165.76V139.2H172.48L191.36 169.088C191.829 169.856 192.448 171.008 193.216 172.544C193.088 171.264 193.024 170.133 193.024 169.152V139.2H199.68V184ZM215.614 147.136L224.702 137.152H233.79L222.398 147.136H215.614ZM234.494 180.224C231.806 183.253 228.158 184.768 223.55 184.768C218.942 184.768 215.294 183.253 212.606 180.224C209.96 177.195 208.638 173.013 208.638 167.68C208.638 162.347 209.96 158.165 212.606 155.136C215.294 152.064 218.942 150.528 223.55 150.528C228.158 150.528 231.806 152.064 234.494 155.136C237.182 158.165 238.526 162.347 238.526 167.68C238.526 173.013 237.182 177.195 234.494 180.224ZM223.55 178.496C226.11 178.496 228.136 177.536 229.63 175.616C231.123 173.696 231.87 171.051 231.87 167.68C231.87 164.309 231.123 161.664 229.63 159.744C228.136 157.781 226.11 156.8 223.55 156.8C221.032 156.8 219.027 157.781 217.534 159.744C216.04 161.664 215.294 164.309 215.294 167.68C215.294 171.008 216.04 173.653 217.534 175.616C219.027 177.536 221.032 178.496 223.55 178.496ZM256.662 184.768C254.102 184.768 251.691 184.299 249.43 183.36C247.169 182.379 245.462 181.077 244.31 179.456L249.046 175.424C251.393 177.643 253.889 178.752 256.534 178.752C260.374 178.752 262.294 177.579 262.294 175.232C262.294 174.421 261.931 173.675 261.206 172.992C260.481 172.309 259.755 171.819 259.03 171.52C258.305 171.179 257.131 170.688 255.51 170.048C251.926 168.853 249.281 167.445 247.574 165.824C245.91 164.203 245.078 162.112 245.078 159.552C245.078 156.736 246.145 154.539 248.278 152.96C250.454 151.339 253.185 150.528 256.47 150.528C261.377 150.528 265.195 152.171 267.926 155.456L263.126 159.296C261.377 157.461 259.158 156.544 256.47 156.544C255.062 156.544 253.931 156.821 253.078 157.376C252.267 157.888 251.862 158.613 251.862 159.552C251.862 160.533 252.353 161.344 253.334 161.984C254.358 162.581 255.979 163.307 258.198 164.16C261.91 165.397 264.619 166.848 266.326 168.512C268.075 170.176 268.95 172.416 268.95 175.232C268.95 178.304 267.841 180.672 265.622 182.336C263.446 183.957 260.459 184.768 256.662 184.768ZM305.548 184.768C300.983 184.768 297.356 183.253 294.668 180.224C292.023 177.152 290.7 172.949 290.7 167.616C290.7 162.283 292.044 158.101 294.732 155.072C297.42 152.043 301.025 150.528 305.548 150.528C309.644 150.528 313.015 151.829 315.66 154.432C318.305 157.035 319.628 160.832 319.628 165.824C319.628 167.659 319.543 169.088 319.372 170.112H297.356C297.399 172.715 298.231 174.827 299.852 176.448C301.516 178.069 303.436 178.88 305.612 178.88C308.428 178.88 310.689 177.771 312.396 175.552L316.748 180.032C314.103 183.189 310.369 184.768 305.548 184.768ZM297.356 164.736H312.972C312.929 161.92 312.183 159.829 310.732 158.464C309.281 157.099 307.553 156.416 305.548 156.416C303.287 156.416 301.388 157.099 299.852 158.464C298.359 159.787 297.527 161.877 297.356 164.736ZM347.524 184V164.48C347.524 161.877 346.927 159.957 345.732 158.72C344.537 157.44 342.959 156.8 340.996 156.8C336.303 156.8 333.956 159.317 333.956 164.352V184H327.3V151.296H333.956V154.432C336.004 151.829 338.82 150.528 342.404 150.528C350.255 150.528 354.18 155.179 354.18 164.48V184H347.524ZM376.16 184.768C371.765 184.768 368.288 183.253 365.728 180.224C363.168 177.195 361.888 173.013 361.888 167.68C361.888 162.347 363.168 158.165 365.728 155.136C368.288 152.064 371.765 150.528 376.16 150.528C382.517 150.528 386.634 153.344 388.512 158.976L382.176 161.152C381.109 158.336 379.189 156.928 376.416 156.928C373.941 156.928 372.021 157.888 370.656 159.808C369.333 161.685 368.672 164.309 368.672 167.68C368.672 171.008 369.333 173.632 370.656 175.552C371.978 177.429 373.813 178.368 376.16 178.368C379.317 178.368 381.365 176.768 382.304 173.568L388.64 175.552C386.89 181.696 382.73 184.768 376.16 184.768ZM420.869 180.224C418.181 183.253 414.533 184.768 409.925 184.768C405.317 184.768 401.669 183.253 398.981 180.224C396.335 177.195 395.013 173.013 395.013 167.68C395.013 162.347 396.335 158.165 398.981 155.136C401.669 152.064 405.317 150.528 409.925 150.528C414.533 150.528 418.181 152.064 420.869 155.136C423.557 158.165 424.901 162.347 424.901 167.68C424.901 173.013 423.557 177.195 420.869 180.224ZM409.925 178.496C412.485 178.496 414.511 177.536 416.005 175.616C417.498 173.696 418.245 171.051 418.245 167.68C418.245 164.309 417.498 161.664 416.005 159.744C414.511 157.781 412.485 156.8 409.925 156.8C407.407 156.8 405.402 157.781 403.909 159.744C402.415 161.664 401.669 164.309 401.669 167.68C401.669 171.008 402.415 173.653 403.909 175.616C405.402 177.536 407.407 178.496 409.925 178.496ZM432.925 184V151.296H439.581V155.264C441.032 152.107 443.464 150.528 446.877 150.528C449.01 150.528 450.845 151.189 452.381 152.512L451.421 158.656C449.842 157.589 448.114 157.056 446.237 157.056C444.445 157.056 442.888 157.739 441.565 159.104C440.242 160.427 439.581 162.603 439.581 165.632V184H432.925ZM475.801 184V181.184C473.497 183.573 470.51 184.768 466.841 184.768C463.385 184.768 460.569 183.829 458.393 181.952C456.259 180.032 455.193 177.323 455.193 173.824C455.193 170.283 456.409 167.595 458.841 165.76C461.273 163.925 464.238 163.008 467.737 163.008C470.937 163.008 473.625 163.648 475.801 164.928V163.136C475.801 160.704 475.246 158.976 474.137 157.952C473.027 156.928 471.257 156.416 468.825 156.416C465.241 156.416 462.126 157.397 459.481 159.36L457.497 153.92C460.782 151.659 464.857 150.528 469.721 150.528C471.342 150.528 472.793 150.677 474.073 150.976C475.353 151.232 476.654 151.765 477.977 152.576C479.299 153.344 480.323 154.603 481.049 156.352C481.817 158.101 482.201 160.256 482.201 162.816V184H475.801ZM468.057 178.88C471.129 178.88 473.71 177.707 475.801 175.36V170.368C473.795 169.301 471.47 168.768 468.825 168.768C466.691 168.768 464.942 169.195 463.577 170.048C462.254 170.859 461.593 172.117 461.593 173.824C461.593 175.403 462.147 176.64 463.257 177.536C464.366 178.432 465.966 178.88 468.057 178.88ZM499.321 145.024C498.553 145.792 497.614 146.176 496.505 146.176C495.395 146.176 494.435 145.792 493.625 145.024C492.857 144.213 492.473 143.253 492.473 142.144C492.473 141.035 492.857 140.096 493.625 139.328C494.435 138.517 495.395 138.112 496.505 138.112C497.614 138.112 498.553 138.517 499.321 139.328C500.131 140.096 500.537 141.035 500.537 142.144C500.537 143.253 500.131 144.213 499.321 145.024ZM487.48 197.696L484.28 192.768C487.651 192.043 489.977 191.104 491.257 189.952C492.537 188.8 493.177 187.051 493.177 184.704V151.296H499.833V182.464C499.833 187.243 498.809 190.699 496.76 192.832C494.499 195.221 491.406 196.843 487.48 197.696ZM528.176 184V181.184C525.872 183.573 522.885 184.768 519.216 184.768C515.76 184.768 512.944 183.829 510.768 181.952C508.634 180.032 507.568 177.323 507.568 173.824C507.568 170.283 508.784 167.595 511.216 165.76C513.648 163.925 516.613 163.008 520.112 163.008C523.312 163.008 526 163.648 528.176 164.928V163.136C528.176 160.704 527.621 158.976 526.512 157.952C525.402 156.928 523.632 156.416 521.2 156.416C517.616 156.416 514.501 157.397 511.856 159.36L509.872 153.92C513.157 151.659 517.232 150.528 522.096 150.528C523.717 150.528 525.168 150.677 526.448 150.976C527.728 151.232 529.029 151.765 530.352 152.576C531.674 153.344 532.698 154.603 533.424 156.352C534.192 158.101 534.576 160.256 534.576 162.816V184H528.176ZM520.432 178.88C523.504 178.88 526.085 177.707 528.176 175.36V170.368C526.17 169.301 523.845 168.768 521.2 168.768C519.066 168.768 517.317 169.195 515.952 170.048C514.629 170.859 513.968 172.117 513.968 173.824C513.968 175.403 514.522 176.64 515.632 177.536C516.741 178.432 518.341 178.88 520.432 178.88ZM581.95 184V164.416C581.95 159.339 579.945 156.8 575.934 156.8C574.057 156.8 572.499 157.504 571.262 158.912C570.025 160.277 569.406 162.219 569.406 164.736V184H562.75V164.416C562.75 159.339 560.745 156.8 556.734 156.8C554.857 156.8 553.299 157.504 552.062 158.912C550.825 160.277 550.206 162.219 550.206 164.736V184H543.55V151.296H550.206V154.304C551.955 151.787 554.707 150.528 558.462 150.528C562.515 150.528 565.417 152.085 567.166 155.2C569.171 152.085 572.393 150.528 576.83 150.528C580.371 150.528 583.209 151.552 585.342 153.6C587.518 155.648 588.606 158.741 588.606 162.88V184H581.95ZM622.119 180.224C619.431 183.253 615.783 184.768 611.175 184.768C606.567 184.768 602.919 183.253 600.231 180.224C597.585 177.195 596.263 173.013 596.263 167.68C596.263 162.347 597.585 158.165 600.231 155.136C602.919 152.064 606.567 150.528 611.175 150.528C615.783 150.528 619.431 152.064 622.119 155.136C624.807 158.165 626.151 162.347 626.151 167.68C626.151 173.013 624.807 177.195 622.119 180.224ZM611.175 178.496C613.735 178.496 615.761 177.536 617.255 175.616C618.748 173.696 619.495 171.051 619.495 167.68C619.495 164.309 618.748 161.664 617.255 159.744C615.761 157.781 613.735 156.8 611.175 156.8C608.657 156.8 606.652 157.781 605.159 159.744C603.665 161.664 602.919 164.309 602.919 167.68C602.919 171.008 603.665 173.653 605.159 175.616C606.652 177.536 608.657 178.496 611.175 178.496ZM644.287 184.768C641.727 184.768 639.316 184.299 637.055 183.36C634.794 182.379 633.087 181.077 631.935 179.456L636.671 175.424C639.018 177.643 641.514 178.752 644.159 178.752C647.999 178.752 649.919 177.579 649.919 175.232C649.919 174.421 649.556 173.675 648.831 172.992C648.106 172.309 647.38 171.819 646.655 171.52C645.93 171.179 644.756 170.688 643.135 170.048C639.551 168.853 636.906 167.445 635.199 165.824C633.535 164.203 632.703 162.112 632.703 159.552C632.703 156.736 633.77 154.539 635.903 152.96C638.079 151.339 640.81 150.528 644.095 150.528C649.002 150.528 652.82 152.171 655.551 155.456L650.751 159.296C649.002 157.461 646.783 156.544 644.095 156.544C642.687 156.544 641.556 156.821 640.703 157.376C639.892 157.888 639.487 158.613 639.487 159.552C639.487 160.533 639.978 161.344 640.959 161.984C641.983 162.581 643.604 163.307 645.823 164.16C649.535 165.397 652.244 166.848 653.951 168.512C655.7 170.176 656.575 172.416 656.575 175.232C656.575 178.304 655.466 180.672 653.247 182.336C651.071 183.957 648.084 184.768 644.287 184.768ZM203.2 279V259.416C203.2 254.339 201.195 251.8 197.184 251.8C195.307 251.8 193.749 252.504 192.512 253.912C191.275 255.277 190.656 257.219 190.656 259.736V279H184V259.416C184 254.339 181.995 251.8 177.984 251.8C176.107 251.8 174.549 252.504 173.312 253.912C172.075 255.277 171.456 257.219 171.456 259.736V279H164.8V246.296H171.456V249.304C173.205 246.787 175.957 245.528 179.712 245.528C183.765 245.528 186.667 247.085 188.416 250.2C190.421 247.085 193.643 245.528 198.08 245.528C201.621 245.528 204.459 246.552 206.592 248.6C208.768 250.648 209.856 253.741 209.856 257.88V279H203.2ZM239.017 279V275.864C236.969 278.467 234.153 279.768 230.569 279.768C222.718 279.768 218.793 275.117 218.793 265.816V246.296H225.449V265.816C225.449 268.419 226.046 270.36 227.241 271.64C228.435 272.877 230.014 273.496 231.977 273.496C236.67 273.496 239.017 270.979 239.017 265.944V246.296H245.673V279H239.017ZM255.62 279V235.928L262.276 232.792V279H255.62ZM272.175 279V235.864L278.831 232.792V249.432C280.879 246.829 283.695 245.528 287.279 245.528C295.13 245.528 299.055 250.179 299.055 259.48V279H292.399V259.48C292.399 256.877 291.802 254.957 290.607 253.72C289.412 252.44 287.834 251.8 285.871 251.8C281.178 251.8 278.831 254.317 278.831 259.352V279H272.175ZM321.611 279.768C317.045 279.768 313.419 278.253 310.731 275.224C308.085 272.152 306.763 267.949 306.763 262.616C306.763 257.283 308.107 253.101 310.795 250.072C313.483 247.043 317.088 245.528 321.611 245.528C325.707 245.528 329.077 246.829 331.723 249.432C334.368 252.035 335.691 255.832 335.691 260.824C335.691 262.659 335.605 264.088 335.435 265.112H313.419C313.461 267.715 314.293 269.827 315.915 271.448C317.579 273.069 319.499 273.88 321.675 273.88C324.491 273.88 326.752 272.771 328.459 270.552L332.811 275.032C330.165 278.189 326.432 279.768 321.611 279.768ZM313.419 259.736H329.035C328.992 256.92 328.245 254.829 326.795 253.464C325.344 252.099 323.616 251.416 321.611 251.416C319.349 251.416 317.451 252.099 315.915 253.464C314.421 254.787 313.589 256.877 313.419 259.736ZM343.363 279V246.296H350.019V250.264C351.469 247.107 353.901 245.528 357.315 245.528C359.448 245.528 361.283 246.189 362.819 247.512L361.859 253.656C360.28 252.589 358.552 252.056 356.675 252.056C354.883 252.056 353.325 252.739 352.003 254.104C350.68 255.427 350.019 257.603 350.019 260.632V279H343.363ZM382.048 279.768C377.483 279.768 373.856 278.253 371.168 275.224C368.523 272.152 367.2 267.949 367.2 262.616C367.2 257.283 368.544 253.101 371.232 250.072C373.92 247.043 377.525 245.528 382.048 245.528C386.144 245.528 389.515 246.829 392.16 249.432C394.805 252.035 396.128 255.832 396.128 260.824C396.128 262.659 396.043 264.088 395.872 265.112H373.856C373.899 267.715 374.731 269.827 376.352 271.448C378.016 273.069 379.936 273.88 382.112 273.88C384.928 273.88 387.189 272.771 388.896 270.552L393.248 275.032C390.603 278.189 386.869 279.768 382.048 279.768ZM373.856 259.736H389.472C389.429 256.92 388.683 254.829 387.232 253.464C385.781 252.099 384.053 251.416 382.048 251.416C379.787 251.416 377.888 252.099 376.352 253.464C374.859 254.787 374.027 256.877 373.856 259.736ZM413.912 279.768C411.352 279.768 408.941 279.299 406.68 278.36C404.419 277.379 402.712 276.077 401.56 274.456L406.296 270.424C408.643 272.643 411.139 273.752 413.784 273.752C417.624 273.752 419.544 272.579 419.544 270.232C419.544 269.421 419.181 268.675 418.456 267.992C417.731 267.309 417.005 266.819 416.28 266.52C415.555 266.179 414.381 265.688 412.76 265.048C409.176 263.853 406.531 262.445 404.824 260.824C403.16 259.203 402.328 257.112 402.328 254.552C402.328 251.736 403.395 249.539 405.528 247.96C407.704 246.339 410.435 245.528 413.72 245.528C418.627 245.528 422.445 247.171 425.176 250.456L420.376 254.296C418.627 252.461 416.408 251.544 413.72 251.544C412.312 251.544 411.181 251.821 410.328 252.376C409.517 252.888 409.112 253.613 409.112 254.552C409.112 255.533 409.603 256.344 410.584 256.984C411.608 257.581 413.229 258.307 415.448 259.16C419.16 260.397 421.869 261.848 423.576 263.512C425.325 265.176 426.2 267.416 426.2 270.232C426.2 273.304 425.091 275.672 422.872 277.336C420.696 278.957 417.709 279.768 413.912 279.768ZM468.238 279V276.184C465.934 278.573 462.947 279.768 459.278 279.768C455.822 279.768 453.006 278.829 450.83 276.952C448.697 275.032 447.63 272.323 447.63 268.824C447.63 265.283 448.846 262.595 451.278 260.76C453.71 258.925 456.675 258.008 460.174 258.008C463.374 258.008 466.062 258.648 468.238 259.928V258.136C468.238 255.704 467.683 253.976 466.574 252.952C465.465 251.928 463.694 251.416 461.262 251.416C457.678 251.416 454.563 252.397 451.918 254.36L449.934 248.92C453.219 246.659 457.294 245.528 462.158 245.528C463.779 245.528 465.23 245.677 466.51 245.976C467.79 246.232 469.091 246.765 470.414 247.576C471.737 248.344 472.761 249.603 473.486 251.352C474.254 253.101 474.638 255.256 474.638 257.816V279H468.238ZM460.494 273.88C463.566 273.88 466.147 272.707 468.238 270.36V265.368C466.233 264.301 463.907 263.768 461.262 263.768C459.129 263.768 457.379 264.195 456.014 265.048C454.691 265.859 454.03 267.117 454.03 268.824C454.03 270.403 454.585 271.64 455.694 272.536C456.803 273.432 458.403 273.88 460.494 273.88ZM509.1 279.768C506.54 279.768 504.129 279.299 501.868 278.36C499.606 277.379 497.9 276.077 496.748 274.456L501.484 270.424C503.83 272.643 506.326 273.752 508.972 273.752C512.812 273.752 514.732 272.579 514.732 270.232C514.732 269.421 514.369 268.675 513.644 267.992C512.918 267.309 512.193 266.819 511.468 266.52C510.742 266.179 509.569 265.688 507.948 265.048C504.364 263.853 501.718 262.445 500.012 260.824C498.348 259.203 497.516 257.112 497.516 254.552C497.516 251.736 498.582 249.539 500.716 247.96C502.892 246.339 505.622 245.528 508.908 245.528C513.814 245.528 517.633 247.171 520.364 250.456L515.564 254.296C513.814 252.461 511.596 251.544 508.908 251.544C507.5 251.544 506.369 251.821 505.516 252.376C504.705 252.888 504.3 253.613 504.3 254.552C504.3 255.533 504.79 256.344 505.772 256.984C506.796 257.581 508.417 258.307 510.635 259.16C514.348 260.397 517.057 261.848 518.764 263.512C520.513 265.176 521.388 267.416 521.388 270.232C521.388 273.304 520.278 275.672 518.06 277.336C515.884 278.957 512.897 279.768 509.1 279.768ZM542.611 279.768C538.045 279.768 534.419 278.253 531.731 275.224C529.085 272.152 527.763 267.949 527.763 262.616C527.763 257.283 529.107 253.101 531.795 250.072C534.483 247.043 538.088 245.528 542.611 245.528C546.707 245.528 550.077 246.829 552.723 249.432C555.368 252.035 556.691 255.832 556.691 260.824C556.691 262.659 556.605 264.088 556.435 265.112H534.419C534.461 267.715 535.293 269.827 536.915 271.448C538.579 273.069 540.499 273.88 542.675 273.88C545.491 273.88 547.752 272.771 549.459 270.552L553.811 275.032C551.165 278.189 547.432 279.768 542.611 279.768ZM534.419 259.736H550.035C549.992 256.92 549.245 254.829 547.795 253.464C546.344 252.099 544.616 251.416 542.611 251.416C540.349 251.416 538.451 252.099 536.915 253.464C535.421 254.787 534.589 256.877 534.419 259.736ZM183.488 374V371.184C181.184 373.573 178.197 374.768 174.528 374.768C171.072 374.768 168.256 373.829 166.08 371.952C163.947 370.032 162.88 367.323 162.88 363.824C162.88 360.283 164.096 357.595 166.528 355.76C168.96 353.925 171.925 353.008 175.424 353.008C178.624 353.008 181.312 353.648 183.488 354.928V353.136C183.488 350.704 182.933 348.976 181.824 347.952C180.715 346.928 178.944 346.416 176.512 346.416C172.928 346.416 169.813 347.397 167.168 349.36L165.184 343.92C168.469 341.659 172.544 340.528 177.408 340.528C179.029 340.528 180.48 340.677 181.76 340.976C183.04 341.232 184.341 341.765 185.664 342.576C186.987 343.344 188.011 344.603 188.736 346.352C189.504 348.101 189.888 350.256 189.888 352.816V374H183.488ZM175.744 368.88C178.816 368.88 181.397 367.707 183.488 365.36V360.368C181.483 359.301 179.157 358.768 176.512 358.768C174.379 358.768 172.629 359.195 171.264 360.048C169.941 360.859 169.28 362.117 169.28 363.824C169.28 365.403 169.835 366.64 170.944 367.536C172.053 368.432 173.653 368.88 175.744 368.88ZM213.391 374.768C210.063 374.768 207.439 373.573 205.519 371.184V383.792L198.863 386.864V341.296H205.519V343.92C207.567 341.659 210.191 340.528 213.391 340.528C217.529 340.528 220.793 342.064 223.183 345.136C225.615 348.165 226.831 352.347 226.831 357.68C226.831 362.971 225.593 367.152 223.119 370.224C220.687 373.253 217.444 374.768 213.391 374.768ZM212.431 368.496C214.948 368.496 216.868 367.579 218.191 365.744C219.513 363.867 220.175 361.179 220.175 357.68C220.175 354.437 219.492 351.813 218.127 349.808C216.761 347.803 214.863 346.8 212.431 346.8C209.359 346.8 207.055 348.037 205.519 350.512V364.72C207.396 367.237 209.7 368.496 212.431 368.496ZM253.488 374V371.184C251.184 373.573 248.197 374.768 244.528 374.768C241.072 374.768 238.256 373.829 236.08 371.952C233.947 370.032 232.88 367.323 232.88 363.824C232.88 360.283 234.096 357.595 236.528 355.76C238.96 353.925 241.925 353.008 245.424 353.008C248.624 353.008 251.312 353.648 253.488 354.928V353.136C253.488 350.704 252.933 348.976 251.824 347.952C250.715 346.928 248.944 346.416 246.512 346.416C242.928 346.416 239.813 347.397 237.168 349.36L235.184 343.92C238.469 341.659 242.544 340.528 247.408 340.528C249.029 340.528 250.48 340.677 251.76 340.976C253.04 341.232 254.341 341.765 255.664 342.576C256.987 343.344 258.011 344.603 258.736 346.352C259.504 348.101 259.888 350.256 259.888 352.816V374H253.488ZM245.744 368.88C248.816 368.88 251.397 367.707 253.488 365.36V360.368C251.483 359.301 249.157 358.768 246.512 358.768C244.379 358.768 242.629 359.195 241.264 360.048C239.941 360.859 239.28 362.117 239.28 363.824C239.28 365.403 239.835 366.64 240.944 367.536C242.053 368.432 243.653 368.88 245.744 368.88ZM275.071 335.024C274.303 335.792 273.364 336.176 272.255 336.176C271.145 336.176 270.185 335.792 269.375 335.024C268.607 334.213 268.223 333.253 268.223 332.144C268.223 331.035 268.607 330.096 269.375 329.328C270.185 328.517 271.145 328.112 272.255 328.112C273.364 328.112 274.303 328.517 275.071 329.328C275.881 330.096 276.287 331.035 276.287 332.144C276.287 333.253 275.881 334.213 275.071 335.024ZM268.927 374V341.296H275.583V374H268.927ZM282.678 374L293.558 356.976L283.574 341.296H291.19L295.734 348.4C296.544 349.765 297.099 350.747 297.398 351.344C298.208 349.851 298.763 348.869 299.062 348.4L303.606 341.296H311.222L301.174 356.976L312.118 374H304.502L299.062 365.552C298.763 365.083 298.208 364.101 297.398 362.608C297.014 363.461 296.459 364.443 295.734 365.552L290.294 374H282.678ZM343.431 370.224C340.743 373.253 337.095 374.768 332.487 374.768C327.879 374.768 324.231 373.253 321.543 370.224C318.898 367.195 317.575 363.013 317.575 357.68C317.575 352.347 318.898 348.165 321.543 345.136C324.231 342.064 327.879 340.528 332.487 340.528C337.095 340.528 340.743 342.064 343.431 345.136C346.119 348.165 347.463 352.347 347.463 357.68C347.463 363.013 346.119 367.195 343.431 370.224ZM332.487 368.496C335.047 368.496 337.074 367.536 338.567 365.616C340.06 363.696 340.807 361.051 340.807 357.68C340.807 354.309 340.06 351.664 338.567 349.744C337.074 347.781 335.047 346.8 332.487 346.8C329.97 346.8 327.964 347.781 326.471 349.744C324.978 351.664 324.231 354.309 324.231 357.68C324.231 361.008 324.978 363.653 326.471 365.616C327.964 367.536 329.97 368.496 332.487 368.496ZM375.712 374V354.48C375.712 351.877 375.114 349.957 373.92 348.72C372.725 347.44 371.146 346.8 369.184 346.8C364.49 346.8 362.144 349.317 362.144 354.352V374H355.488V341.296H362.144V344.432C364.192 341.829 367.008 340.528 370.592 340.528C378.442 340.528 382.368 345.179 382.368 354.48V374H375.712ZM410.363 374V371.184C408.059 373.573 405.072 374.768 401.403 374.768C397.947 374.768 395.131 373.829 392.955 371.952C390.822 370.032 389.755 367.323 389.755 363.824C389.755 360.283 390.971 357.595 393.403 355.76C395.835 353.925 398.8 353.008 402.299 353.008C405.499 353.008 408.187 353.648 410.363 354.928V353.136C410.363 350.704 409.808 348.976 408.699 347.952C407.59 346.928 405.819 346.416 403.387 346.416C399.803 346.416 396.688 347.397 394.043 349.36L392.059 343.92C395.344 341.659 399.419 340.528 404.283 340.528C405.904 340.528 407.355 340.677 408.635 340.976C409.915 341.232 411.216 341.765 412.539 342.576C413.862 343.344 414.886 344.603 415.611 346.352C416.379 348.101 416.763 350.256 416.763 352.816V374H410.363ZM402.619 368.88C405.691 368.88 408.272 367.707 410.363 365.36V360.368C408.358 359.301 406.032 358.768 403.387 358.768C401.254 358.768 399.504 359.195 398.139 360.048C396.816 360.859 396.155 362.117 396.155 363.824C396.155 365.403 396.71 366.64 397.819 367.536C398.928 368.432 400.528 368.88 402.619 368.88ZM425.738 374V341.296H432.394V345.264C433.844 342.107 436.276 340.528 439.69 340.528C441.823 340.528 443.658 341.189 445.194 342.512L444.234 348.656C442.655 347.589 440.927 347.056 439.05 347.056C437.258 347.056 435.7 347.739 434.378 349.104C433.055 350.427 432.394 352.603 432.394 355.632V374H425.738ZM464.423 374.768C459.858 374.768 456.231 373.253 453.543 370.224C450.898 367.152 449.575 362.949 449.575 357.616C449.575 352.283 450.919 348.101 453.607 345.072C456.295 342.043 459.9 340.528 464.423 340.528C468.519 340.528 471.89 341.829 474.535 344.432C477.18 347.035 478.503 350.832 478.503 355.824C478.503 357.659 478.418 359.088 478.247 360.112H456.231C456.274 362.715 457.106 364.827 458.727 366.448C460.391 368.069 462.311 368.88 464.487 368.88C467.303 368.88 469.564 367.771 471.271 365.552L475.623 370.032C472.978 373.189 469.244 374.768 464.423 374.768ZM456.231 354.736H471.847C471.804 351.92 471.058 349.829 469.607 348.464C468.156 347.099 466.428 346.416 464.423 346.416C462.162 346.416 460.263 347.099 458.727 348.464C457.234 349.787 456.402 351.877 456.231 354.736ZM524.575 374V354.416C524.575 349.339 522.57 346.8 518.559 346.8C516.682 346.8 515.124 347.504 513.887 348.912C512.65 350.277 512.031 352.219 512.031 354.736V374H505.375V354.416C505.375 349.339 503.37 346.8 499.359 346.8C497.482 346.8 495.924 347.504 494.687 348.912C493.45 350.277 492.831 352.219 492.831 354.736V374H486.175V341.296H492.831V344.304C494.58 341.787 497.332 340.528 501.087 340.528C505.14 340.528 508.042 342.085 509.791 345.2C511.796 342.085 515.018 340.528 519.455 340.528C522.996 340.528 525.834 341.552 527.967 343.6C530.143 345.648 531.231 348.741 531.231 352.88V374H524.575ZM570.391 374.768C567.063 374.768 564.439 373.573 562.519 371.184V383.792L555.863 386.864V341.296H562.519V343.92C564.567 341.659 567.191 340.528 570.391 340.528C574.529 340.528 577.793 342.064 580.183 345.136C582.615 348.165 583.831 352.347 583.831 357.68C583.831 362.971 582.593 367.152 580.119 370.224C577.687 373.253 574.444 374.768 570.391 374.768ZM569.431 368.496C571.948 368.496 573.868 367.579 575.191 365.744C576.513 363.867 577.175 361.179 577.175 357.68C577.175 354.437 576.492 351.813 575.127 349.808C573.761 347.803 571.863 346.8 569.431 346.8C566.359 346.8 564.055 348.037 562.519 350.512V364.72C564.396 367.237 566.7 368.496 569.431 368.496ZM616.056 370.224C613.368 373.253 609.72 374.768 605.112 374.768C600.504 374.768 596.856 373.253 594.168 370.224C591.523 367.195 590.2 363.013 590.2 357.68C590.2 352.347 591.523 348.165 594.168 345.136C596.856 342.064 600.504 340.528 605.112 340.528C609.72 340.528 613.368 342.064 616.056 345.136C618.744 348.165 620.088 352.347 620.088 357.68C620.088 363.013 618.744 367.195 616.056 370.224ZM605.112 368.496C607.672 368.496 609.699 367.536 611.192 365.616C612.685 363.696 613.432 361.051 613.432 357.68C613.432 354.309 612.685 351.664 611.192 349.744C609.699 347.781 607.672 346.8 605.112 346.8C602.595 346.8 600.589 347.781 599.096 349.744C597.603 351.664 596.856 354.309 596.856 357.68C596.856 361.008 597.603 363.653 599.096 365.616C600.589 367.536 602.595 368.496 605.112 368.496ZM628.113 374V341.296H634.769V345.264C636.219 342.107 638.651 340.528 642.065 340.528C644.198 340.528 646.033 341.189 647.569 342.512L646.609 348.656C645.03 347.589 643.302 347.056 641.425 347.056C639.633 347.056 638.075 347.739 636.753 349.104C635.43 350.427 634.769 352.603 634.769 355.632V374H628.113ZM179.328 469.768C176 469.768 173.376 468.573 171.456 466.184V478.792L164.8 481.864V436.296H171.456V438.92C173.504 436.659 176.128 435.528 179.328 435.528C183.467 435.528 186.731 437.064 189.12 440.136C191.552 443.165 192.768 447.347 192.768 452.68C192.768 457.971 191.531 462.152 189.056 465.224C186.624 468.253 183.381 469.768 179.328 469.768ZM178.368 463.496C180.885 463.496 182.805 462.579 184.128 460.744C185.451 458.867 186.112 456.179 186.112 452.68C186.112 449.437 185.429 446.813 184.064 444.808C182.699 442.803 180.8 441.8 178.368 441.8C175.296 441.8 172.992 443.037 171.456 445.512V459.72C173.333 462.237 175.637 463.496 178.368 463.496ZM200.738 469V436.296H207.394V440.264C208.844 437.107 211.276 435.528 214.69 435.528C216.823 435.528 218.658 436.189 220.194 437.512L219.234 443.656C217.655 442.589 215.927 442.056 214.05 442.056C212.258 442.056 210.7 442.739 209.378 444.104C208.055 445.427 207.394 447.603 207.394 450.632V469H200.738ZM250.431 465.224C247.743 468.253 244.095 469.768 239.487 469.768C234.879 469.768 231.231 468.253 228.543 465.224C225.898 462.195 224.575 458.013 224.575 452.68C224.575 447.347 225.898 443.165 228.543 440.136C231.231 437.064 234.879 435.528 239.487 435.528C244.095 435.528 247.743 437.064 250.431 440.136C253.119 443.165 254.463 447.347 254.463 452.68C254.463 458.013 253.119 462.195 250.431 465.224ZM239.487 463.496C242.047 463.496 244.074 462.536 245.567 460.616C247.06 458.696 247.807 456.051 247.807 452.68C247.807 449.309 247.06 446.664 245.567 444.744C244.074 442.781 242.047 441.8 239.487 441.8C236.97 441.8 234.964 442.781 233.471 444.744C231.978 446.664 231.231 449.309 231.231 452.68C231.231 456.008 231.978 458.653 233.471 460.616C234.964 462.536 236.97 463.496 239.487 463.496ZM273.432 481.8L270.104 476.68C274.626 476.424 277.762 475.656 279.512 474.376C281.304 473.139 282.2 471.432 282.2 469.256V466.376C280.365 468.637 277.741 469.768 274.328 469.768C270.402 469.768 267.181 468.296 264.664 465.352C262.146 462.365 260.888 458.12 260.888 452.616C260.888 447.325 262.125 443.165 264.6 440.136C267.117 437.064 270.402 435.528 274.456 435.528C277.656 435.528 280.237 436.552 282.2 438.6V436.296H288.856V466.888C288.856 471.923 287.597 475.571 285.08 477.832C282.562 480.093 278.68 481.416 273.432 481.8ZM275.544 463.496C278.445 463.496 280.664 462.216 282.2 459.656V445.512C281.517 444.403 280.557 443.507 279.32 442.824C278.125 442.141 276.866 441.8 275.544 441.8C272.941 441.8 270.957 442.739 269.592 444.616C268.226 446.451 267.544 449.117 267.544 452.616C267.544 455.944 268.248 458.589 269.656 460.552C271.106 462.515 273.069 463.496 275.544 463.496ZM298.425 469V436.296H305.081V440.264C306.532 437.107 308.964 435.528 312.377 435.528C314.51 435.528 316.345 436.189 317.881 437.512L316.921 443.656C315.342 442.589 313.614 442.056 311.737 442.056C309.945 442.056 308.388 442.739 307.065 444.104C305.742 445.427 305.081 447.603 305.081 450.632V469H298.425ZM341.301 469V466.184C338.997 468.573 336.01 469.768 332.341 469.768C328.885 469.768 326.069 468.829 323.893 466.952C321.759 465.032 320.693 462.323 320.693 458.824C320.693 455.283 321.909 452.595 324.341 450.76C326.773 448.925 329.738 448.008 333.237 448.008C336.437 448.008 339.125 448.648 341.301 449.928V448.136C341.301 445.704 340.746 443.976 339.637 442.952C338.527 441.928 336.757 441.416 334.325 441.416C330.741 441.416 327.626 442.397 324.981 444.36L322.997 438.92C326.282 436.659 330.357 435.528 335.221 435.528C336.842 435.528 338.293 435.677 339.573 435.976C340.853 436.232 342.154 436.765 343.477 437.576C344.799 438.344 345.823 439.603 346.549 441.352C347.317 443.101 347.701 445.256 347.701 447.816V469H341.301ZM333.557 463.88C336.629 463.88 339.21 462.707 341.301 460.36V455.368C339.295 454.301 336.97 453.768 334.325 453.768C332.191 453.768 330.442 454.195 329.077 455.048C327.754 455.859 327.093 457.117 327.093 458.824C327.093 460.403 327.647 461.64 328.757 462.536C329.866 463.432 331.466 463.88 333.557 463.88ZM395.075 469V449.416C395.075 444.339 393.07 441.8 389.059 441.8C387.182 441.8 385.624 442.504 384.387 443.912C383.15 445.277 382.531 447.219 382.531 449.736V469H375.875V449.416C375.875 444.339 373.87 441.8 369.859 441.8C367.982 441.8 366.424 442.504 365.187 443.912C363.95 445.277 363.331 447.219 363.331 449.736V469H356.675V436.296H363.331V439.304C365.08 436.787 367.832 435.528 371.587 435.528C375.64 435.528 378.542 437.085 380.291 440.2C382.296 437.085 385.518 435.528 389.955 435.528C393.496 435.528 396.334 436.552 398.467 438.6C400.643 440.648 401.731 443.741 401.731 447.88V469H395.075ZM429.676 469V466.184C427.372 468.573 424.385 469.768 420.716 469.768C417.26 469.768 414.444 468.829 412.268 466.952C410.134 465.032 409.068 462.323 409.068 458.824C409.068 455.283 410.284 452.595 412.716 450.76C415.148 448.925 418.113 448.008 421.612 448.008C424.812 448.008 427.5 448.648 429.676 449.928V448.136C429.676 445.704 429.121 443.976 428.012 442.952C426.902 441.928 425.132 441.416 422.7 441.416C419.116 441.416 416.001 442.397 413.356 444.36L411.372 438.92C414.657 436.659 418.732 435.528 423.596 435.528C425.217 435.528 426.668 435.677 427.948 435.976C429.228 436.232 430.529 436.765 431.852 437.576C433.174 438.344 434.198 439.603 434.924 441.352C435.692 443.101 436.076 445.256 436.076 447.816V469H429.676ZM421.932 463.88C425.004 463.88 427.585 462.707 429.676 460.36V455.368C427.67 454.301 425.345 453.768 422.7 453.768C420.566 453.768 418.817 454.195 417.452 455.048C416.129 455.859 415.468 457.117 415.468 458.824C415.468 460.403 416.022 461.64 417.132 462.536C418.241 463.432 419.841 463.88 421.932 463.88ZM456.762 484.296C453.989 484.296 451.855 483.485 450.362 481.864L453.626 479.496C454.138 480.136 454.97 480.456 456.122 480.456C457.061 480.456 457.829 480.2 458.426 479.688C459.023 479.176 459.322 478.493 459.322 477.64C459.322 476.829 458.981 476.168 458.298 475.656C457.658 475.144 456.847 474.888 455.866 474.888C454.842 474.888 453.989 475.101 453.306 475.528L452.026 473.928L455.482 469.576C451.727 469.107 448.783 467.4 446.65 464.456C444.517 461.469 443.45 457.544 443.45 452.68C443.45 447.347 444.73 443.165 447.29 440.136C449.85 437.064 453.327 435.528 457.722 435.528C464.079 435.528 468.197 438.344 470.074 443.976L463.738 446.152C462.671 443.336 460.751 441.928 457.978 441.928C455.503 441.928 453.583 442.888 452.218 444.808C450.895 446.685 450.234 449.309 450.234 452.68C450.234 456.008 450.895 458.632 452.218 460.552C453.541 462.429 455.375 463.368 457.722 463.368C460.879 463.368 462.927 461.768 463.866 458.568L470.202 460.552C468.581 466.141 464.954 469.192 459.322 469.704L457.786 472.2C460.133 472.2 461.882 472.712 463.034 473.736C464.229 474.803 464.826 476.125 464.826 477.704C464.826 479.667 464.079 481.245 462.586 482.44C461.135 483.677 459.194 484.296 456.762 484.296ZM495.214 431.432C493.593 431.432 491.651 430.92 489.39 429.896C487.171 428.872 485.593 428.36 484.654 428.36C482.777 428.36 481.774 429.299 481.646 431.176H478.382C478.382 425.629 480.622 422.856 485.102 422.856C486.723 422.856 488.643 423.368 490.862 424.392C493.123 425.416 494.723 425.928 495.662 425.928C497.539 425.928 498.542 424.989 498.67 423.112H501.934C501.934 428.659 499.694 431.432 495.214 431.432ZM496.238 469V466.184C493.934 468.573 490.947 469.768 487.278 469.768C483.822 469.768 481.006 468.829 478.83 466.952C476.697 465.032 475.63 462.323 475.63 458.824C475.63 455.283 476.846 452.595 479.278 450.76C481.71 448.925 484.675 448.008 488.174 448.008C491.374 448.008 494.062 448.648 496.238 449.928V448.136C496.238 445.704 495.683 443.976 494.574 442.952C493.465 441.928 491.694 441.416 489.262 441.416C485.678 441.416 482.563 442.397 479.918 444.36L477.934 438.92C481.219 436.659 485.294 435.528 490.158 435.528C491.779 435.528 493.23 435.677 494.51 435.976C495.79 436.232 497.091 436.765 498.414 437.576C499.737 438.344 500.761 439.603 501.486 441.352C502.254 443.101 502.638 445.256 502.638 447.816V469H496.238ZM488.494 463.88C491.566 463.88 494.147 462.707 496.238 460.36V455.368C494.233 454.301 491.907 453.768 489.262 453.768C487.129 453.768 485.379 454.195 484.014 455.048C482.691 455.859 482.03 457.117 482.03 458.824C482.03 460.403 482.585 461.64 483.694 462.536C484.803 463.432 486.403 463.88 488.494 463.88ZM535.869 465.224C533.181 468.253 529.533 469.768 524.925 469.768C520.317 469.768 516.669 468.253 513.981 465.224C511.335 462.195 510.013 458.013 510.013 452.68C510.013 447.347 511.335 443.165 513.981 440.136C516.669 437.064 520.317 435.528 524.925 435.528C529.533 435.528 533.181 437.064 535.869 440.136C538.557 443.165 539.901 447.347 539.901 452.68C539.901 458.013 538.557 462.195 535.869 465.224ZM524.925 463.496C527.485 463.496 529.511 462.536 531.005 460.616C532.498 458.696 533.245 456.051 533.245 452.68C533.245 449.309 532.498 446.664 531.005 444.744C529.511 442.781 527.485 441.8 524.925 441.8C522.407 441.8 520.402 442.781 518.909 444.744C517.415 446.664 516.669 449.309 516.669 452.68C516.669 456.008 517.415 458.653 518.909 460.616C520.402 462.536 522.407 463.496 524.925 463.496Z" fill="white"/>
<defs>
<filter id="filter0_d" x="-569" y="-363" width="2023.56" height="1396.48" filterUnits="userSpaceOnUse" color-interpolation-filters="sRGB">
<feFlood flood-opacity="0" result="BackgroundImageFix"/>
<feColorMatrix in="SourceAlpha" type="matrix" values="0 0 0 0 0 0 0 0 0 0 0 0 0 0 0 0 0 0 127 0"/>
<feOffset dy="4"/>
<feGaussianBlur stdDeviation="2"/>
<feColorMatrix type="matrix" values="0 0 0 0 0 0 0 0 0 0 0 0 0 0 0 0 0 0 0.25 0"/>
<feBlend mode="normal" in2="BackgroundImageFix" result="effect1_dropShadow"/>
<feBlend mode="normal" in="SourceGraphic" in2="effect1_dropShadow" result="shape"/>
</filter>
<linearGradient id="paint0_linear" x1="1451.06" y1="623.227" x2="-231.883" y2="155.006" gradientUnits="userSpaceOnUse">
<stop stop-color="#B020F4" stop-opacity="0.82"/>
<stop offset="1" stop-color="#305AEF" stop-opacity="0.45"/>
</linearGradient>
</defs>
</svg>
