<svg width="1440" height="943" viewBox="0 0 1440 943" fill="none" xmlns="http://www.w3.org/2000/svg">
<path d="M634.747 807.307L1241.94 -304.141L-235.112 -32.9168L-345.112 1016.58L634.747 807.307Z" fill="url(#paint0_linear)"/>
<path d="M1356.65 362.032C1373.19 362.032 1386.6 348.625 1386.6 332.087C1386.6 315.549 1373.19 302.142 1356.65 302.142C1340.11 302.142 1326.7 315.549 1326.7 332.087C1326.7 348.625 1340.11 362.032 1356.65 362.032Z" fill="#2F2E41"/>
<path d="M1365 302.967C1370.18 302.967 1375.27 304.313 1379.78 306.871C1384.29 309.43 1388.06 313.114 1390.71 317.564C1393.37 322.014 1394.83 327.077 1394.94 332.258C1395.05 337.439 1393.82 342.561 1391.36 347.123C1393.96 343.875 1395.85 340.121 1396.92 336.102C1397.98 332.083 1398.2 327.885 1397.55 323.778C1396.9 319.67 1395.41 315.742 1393.16 312.244C1390.91 308.746 1387.96 305.755 1384.49 303.461C1381.02 301.167 1377.11 299.621 1373.01 298.921C1368.91 298.221 1364.71 298.383 1360.68 299.396C1356.65 300.408 1352.87 302.25 1349.58 304.804C1346.3 307.358 1343.59 310.567 1341.61 314.227C1344.41 310.713 1347.97 307.875 1352.02 305.926C1356.07 303.976 1360.5 302.965 1365 302.967Z" fill="#2F2E41"/>
<path d="M1300.69 332.024C1349.28 332.024 1388.66 292.641 1388.66 244.06C1388.66 195.48 1349.28 156.097 1300.69 156.097C1252.1 156.097 1212.71 195.48 1212.71 244.06C1212.71 292.641 1252.1 332.024 1300.69 332.024Z" fill="#2F2E41"/>
<path d="M1231.64 189.483C1246.8 172.437 1267.99 161.947 1290.74 160.226C1313.49 158.505 1336.01 165.689 1353.57 180.26C1352.85 179.576 1352.13 178.887 1351.39 178.223C1333.95 162.729 1311.07 154.795 1287.78 156.166C1264.49 157.538 1242.7 168.101 1227.2 185.534C1211.7 202.968 1203.76 225.842 1205.12 249.128C1206.49 272.414 1217.05 294.204 1234.48 309.706C1235.23 310.37 1236 310.996 1236.76 311.63C1220.23 295.909 1210.46 274.382 1209.5 251.592C1208.55 228.802 1216.48 206.532 1231.64 189.483Z" fill="#2F2E41"/>
<path d="M1299.94 331.278C1331.24 331.278 1356.61 305.913 1356.61 274.624C1356.61 243.335 1331.24 217.97 1299.94 217.97C1268.65 217.97 1243.28 243.335 1243.28 274.624C1243.28 305.913 1268.65 331.278 1299.94 331.278Z" fill="#FFB8B8"/>
<path d="M1259.68 292.515C1259.68 292.515 1267.14 361.096 1255.21 368.551C1243.28 376.005 1323.8 386.442 1323.8 386.442C1323.8 386.442 1311.87 311.897 1341.69 292.515H1259.68Z" fill="#FFB8B8"/>
<path d="M1331.26 356.624C1331.26 356.624 1353.46 346.257 1321.48 349.949C1289.5 353.642 1261.91 339.478 1261.91 339.478C1261.91 339.478 1252.23 329.787 1250.73 340.224C1249.24 350.66 1255.21 370.042 1222.4 373.024C1189.6 376.005 1159.78 367.06 1147.85 389.423C1135.92 411.787 1141.88 508.696 1141.88 508.696C1141.88 508.696 1164.25 589.205 1182.14 601.132C1200.04 613.059 1356.61 596.659 1356.61 596.659L1401.34 516.15V422.223C1401.34 422.223 1395.38 389.423 1353.62 398.369C1353.62 398.369 1326.78 392.405 1328.27 378.987C1329.77 365.569 1331.26 356.624 1331.26 356.624Z" fill="#D0CDE1"/>
<path d="M1188.06 658.106C1188.98 654.091 1189.6 651.82 1189.6 651.82L1189.12 648.554L1184.21 615.199L1182.14 601.13C1200.03 593.676 1204.51 559.383 1204.51 559.383L1205.18 558.98L1208.24 557.154V557.145L1219.2 550.572L1219.42 550.44L1223.85 553.385L1232.84 559.383C1264.31 582.519 1296.35 582.108 1316.13 578.463C1328.21 576.233 1335.73 572.803 1335.73 572.803L1357.42 565.57L1358.09 565.348L1358.76 565.447L1371.48 567.372L1371.71 567.413L1372.77 567.57L1369.82 587.933L1365.55 617.528C1376.83 623.501 1386.86 634.723 1395.63 648.554C1397.58 651.615 1399.46 654.799 1401.28 658.106C1403.65 662.385 1405.91 666.836 1408.07 671.394C1408.33 671.937 1408.59 672.488 1408.84 673.039C1409.67 674.825 1410.5 676.627 1411.29 678.437H1184.11C1184.41 676.618 1184.7 674.882 1184.99 673.212C1185.01 673.155 1185.02 673.098 1185.02 673.039C1185.13 672.48 1185.23 671.937 1185.32 671.394C1186.32 665.964 1187.29 661.43 1188.06 658.106Z" fill="#2F2E41"/>
<path d="M1179.16 371.533C1179.16 371.533 1195.56 401.351 1189.6 438.623C1183.63 475.896 1207.49 568.332 1207.49 568.332L1225.39 563.859C1225.39 563.859 1213.46 486.332 1216.44 468.441C1219.42 450.551 1219.42 380.478 1204.51 371.533C1189.6 362.587 1179.16 371.533 1179.16 371.533Z" fill="#2F2E41"/>
<path d="M1352.57 402.52L1358.84 567.587L1370.77 575.041C1370.77 575.041 1387.92 393.896 1378.97 393.896H1360.77C1359.66 393.896 1358.55 394.123 1357.53 394.561C1356.51 395 1355.59 395.643 1354.82 396.449C1354.05 397.256 1353.46 398.21 1353.07 399.254C1352.69 400.297 1352.52 401.408 1352.57 402.52Z" fill="#2F2E41"/>
<path d="M1215.69 564.605C1219.81 564.605 1223.15 561.267 1223.15 557.15C1223.15 553.033 1219.81 549.696 1215.69 549.696C1211.58 549.696 1208.24 553.033 1208.24 557.15C1208.24 561.267 1211.58 564.605 1215.69 564.605Z" fill="#6C63FF"/>
<path d="M1364.81 572.059C1368.92 572.059 1372.26 568.722 1372.26 564.605C1372.26 560.488 1368.92 557.15 1364.81 557.15C1360.69 557.15 1357.35 560.488 1357.35 564.605C1357.35 568.722 1360.69 572.059 1364.81 572.059Z" fill="#6C63FF"/>
<path d="M1251.48 203.806V260.46H1264.6L1281.3 242.569L1279.07 260.46H1337.07L1333.49 242.569L1340.65 260.46H1349.9V203.806H1251.48Z" fill="#2F2E41"/>
<path d="M1242.53 270.897C1245 270.897 1247.01 267.226 1247.01 262.697C1247.01 258.168 1245 254.497 1242.53 254.497C1240.06 254.497 1238.06 258.168 1238.06 262.697C1238.06 267.226 1240.06 270.897 1242.53 270.897Z" fill="#FFB8B8"/>
<path d="M1357.35 270.897C1359.82 270.897 1361.82 267.226 1361.82 262.697C1361.82 258.168 1359.82 254.497 1357.35 254.497C1354.88 254.497 1352.88 258.168 1352.88 262.697C1352.88 267.226 1354.88 270.897 1357.35 270.897Z" fill="#FFB8B8"/>
<path d="M1387.92 563.859C1387.92 563.859 1320.07 551.187 1315.6 573.55C1311.13 595.914 1390.9 586.223 1390.9 586.223L1387.92 563.859Z" fill="#FFB8B8"/>
<path d="M1386.43 410.296C1386.43 410.296 1548.96 540.005 1519.14 571.314C1489.32 602.623 1375.99 593.677 1375.99 593.677L1383.45 556.405L1449.06 548.95L1416.25 516.15L1386.43 519.132V410.296Z" fill="#D0CDE1"/>
<path d="M1146.36 626.477L1167.23 642.877C1167.23 642.877 1182.14 689.095 1204.51 675.677C1226.88 662.259 1183.63 614.55 1183.63 614.55L1158.28 605.604L1146.36 626.477Z" fill="#FFB8B8"/>
<path d="M1167.23 386.442L1146.41 392.706C1146.41 392.706 1001.72 499.75 995.75 529.568C989.786 559.386 1024.08 575.786 1024.08 575.786L1153.81 636.913L1167.23 601.132L1106.09 569.823C1106.09 569.823 1110.57 560.877 1092.67 559.386C1074.78 557.896 1071.8 538.514 1071.8 538.514C1071.8 538.514 1107.59 483.35 1126.97 495.278C1146.36 507.205 1152.32 516.15 1152.32 516.15L1167.23 386.442Z" fill="#D0CDE1"/>
<path d="M1464.18 663.216V668.21C1464.18 669.581 1463.93 670.94 1463.43 672.217C1463.21 672.786 1462.94 673.336 1462.63 673.862C1461.65 675.508 1460.26 676.871 1458.59 677.817C1456.93 678.763 1455.05 679.26 1453.13 679.26H1085.67C1083.75 679.26 1081.87 678.763 1080.2 677.817C1078.54 676.871 1077.14 675.508 1076.16 673.862C1075.85 673.336 1075.59 672.786 1075.37 672.217C1074.87 670.94 1074.61 669.581 1074.62 668.21V663.216C1074.62 661.765 1074.9 660.328 1075.46 658.987C1076.01 657.646 1076.83 656.428 1077.85 655.402C1078.88 654.375 1080.1 653.562 1081.44 653.006C1082.78 652.451 1084.22 652.166 1085.67 652.166H1106.85V649.838C1106.85 649.777 1106.86 649.717 1106.88 649.661C1106.91 649.605 1106.94 649.554 1106.98 649.512C1107.03 649.469 1107.08 649.435 1107.13 649.412C1107.19 649.389 1107.25 649.377 1107.31 649.377H1118.36C1118.42 649.377 1118.48 649.389 1118.54 649.412C1118.59 649.435 1118.64 649.469 1118.69 649.512C1118.73 649.554 1118.76 649.605 1118.79 649.661C1118.81 649.717 1118.82 649.777 1118.82 649.838V652.166H1125.73V649.838C1125.73 649.777 1125.74 649.717 1125.76 649.661C1125.78 649.605 1125.82 649.554 1125.86 649.512C1125.9 649.469 1125.95 649.435 1126.01 649.412C1126.07 649.389 1126.13 649.377 1126.19 649.377H1137.24C1137.3 649.377 1137.36 649.389 1137.42 649.412C1137.47 649.435 1137.52 649.469 1137.56 649.512C1137.61 649.554 1137.64 649.605 1137.66 649.661C1137.69 649.717 1137.7 649.777 1137.7 649.838V652.166H1144.61V649.838C1144.61 649.777 1144.62 649.717 1144.65 649.661C1144.67 649.605 1144.7 649.554 1144.75 649.512C1144.79 649.469 1144.84 649.435 1144.9 649.412C1144.95 649.389 1145.01 649.377 1145.07 649.377H1156.12C1156.18 649.377 1156.24 649.389 1156.3 649.412C1156.36 649.435 1156.41 649.469 1156.45 649.512C1156.49 649.554 1156.53 649.605 1156.55 649.661C1156.57 649.717 1156.58 649.777 1156.58 649.838V652.166H1163.49V649.838C1163.49 649.777 1163.5 649.717 1163.52 649.661C1163.55 649.605 1163.58 649.554 1163.62 649.512C1163.67 649.469 1163.72 649.435 1163.77 649.412C1163.83 649.389 1163.89 649.377 1163.95 649.377H1175C1175.06 649.377 1175.12 649.389 1175.18 649.412C1175.23 649.435 1175.28 649.469 1175.33 649.512C1175.37 649.554 1175.4 649.605 1175.43 649.661C1175.45 649.717 1175.46 649.777 1175.46 649.838V652.166H1182.37V649.838C1182.37 649.777 1182.38 649.717 1182.4 649.661C1182.42 649.605 1182.46 649.554 1182.5 649.512C1182.54 649.469 1182.59 649.435 1182.65 649.412C1182.71 649.389 1182.77 649.377 1182.83 649.377H1193.88C1193.94 649.377 1194 649.389 1194.05 649.412C1194.11 649.435 1194.16 649.469 1194.2 649.512C1194.25 649.554 1194.28 649.605 1194.3 649.661C1194.33 649.717 1194.34 649.777 1194.34 649.838V652.166H1201.25V649.838C1201.25 649.777 1201.26 649.717 1201.29 649.661C1201.31 649.605 1201.34 649.554 1201.39 649.512C1201.43 649.469 1201.48 649.435 1201.54 649.412C1201.59 649.389 1201.65 649.377 1201.71 649.377H1212.76C1212.82 649.377 1212.88 649.389 1212.94 649.412C1213 649.435 1213.05 649.469 1213.09 649.512C1213.13 649.554 1213.17 649.605 1213.19 649.661C1213.21 649.717 1213.22 649.777 1213.22 649.838V652.166H1220.13V649.838C1220.13 649.777 1220.14 649.717 1220.16 649.661C1220.19 649.605 1220.22 649.554 1220.26 649.512C1220.31 649.469 1220.36 649.435 1220.41 649.412C1220.47 649.389 1220.53 649.377 1220.59 649.377H1307.16C1307.22 649.377 1307.28 649.389 1307.33 649.412C1307.39 649.435 1307.44 649.469 1307.48 649.512C1307.53 649.554 1307.56 649.605 1307.58 649.661C1307.61 649.717 1307.62 649.777 1307.62 649.838V652.166H1314.53V649.838C1314.53 649.777 1314.54 649.717 1314.56 649.661C1314.59 649.605 1314.62 649.554 1314.66 649.512C1314.71 649.469 1314.76 649.435 1314.81 649.412C1314.87 649.389 1314.93 649.377 1314.99 649.377H1326.04C1326.16 649.378 1326.28 649.427 1326.37 649.513C1326.45 649.599 1326.5 649.716 1326.5 649.838V652.166H1333.41V649.838C1333.41 649.777 1333.42 649.717 1333.44 649.661C1333.46 649.605 1333.5 649.554 1333.54 649.512C1333.58 649.469 1333.64 649.435 1333.69 649.412C1333.75 649.389 1333.81 649.377 1333.87 649.377H1344.92C1344.98 649.377 1345.04 649.389 1345.1 649.412C1345.15 649.435 1345.2 649.469 1345.25 649.512C1345.29 649.554 1345.32 649.605 1345.35 649.661C1345.37 649.717 1345.38 649.777 1345.38 649.838V652.166H1352.28V649.838C1352.28 649.777 1352.3 649.717 1352.32 649.661C1352.34 649.605 1352.38 649.554 1352.42 649.512C1352.46 649.469 1352.51 649.435 1352.57 649.412C1352.62 649.389 1352.68 649.377 1352.74 649.377H1363.8C1363.86 649.377 1363.92 649.389 1363.97 649.412C1364.03 649.435 1364.08 649.469 1364.12 649.512C1364.17 649.554 1364.2 649.605 1364.22 649.661C1364.25 649.717 1364.26 649.777 1364.26 649.838V652.166H1371.17V649.838C1371.17 649.777 1371.18 649.717 1371.2 649.661C1371.23 649.605 1371.26 649.554 1371.3 649.512C1371.35 649.469 1371.4 649.435 1371.45 649.412C1371.51 649.389 1371.57 649.377 1371.63 649.377H1382.68C1382.8 649.378 1382.92 649.428 1383 649.514C1383.09 649.6 1383.13 649.717 1383.13 649.838V652.166H1390.05V649.838C1390.05 649.777 1390.06 649.717 1390.08 649.661C1390.1 649.605 1390.14 649.554 1390.18 649.512C1390.22 649.469 1390.27 649.435 1390.33 649.412C1390.39 649.389 1390.45 649.377 1390.51 649.377H1401.56C1401.62 649.377 1401.68 649.389 1401.74 649.412C1401.79 649.435 1401.84 649.469 1401.88 649.512C1401.93 649.554 1401.96 649.605 1401.98 649.661C1402.01 649.717 1402.02 649.777 1402.02 649.838V652.166H1408.92V649.838C1408.92 649.777 1408.94 649.717 1408.96 649.661C1408.98 649.605 1409.02 649.554 1409.06 649.512C1409.1 649.469 1409.15 649.435 1409.21 649.412C1409.26 649.389 1409.32 649.377 1409.38 649.377H1420.44C1420.5 649.377 1420.56 649.389 1420.61 649.412C1420.67 649.435 1420.72 649.469 1420.76 649.512C1420.8 649.554 1420.84 649.605 1420.86 649.661C1420.88 649.717 1420.9 649.777 1420.9 649.838V652.166H1453.13C1454.58 652.166 1456.02 652.451 1457.36 653.006C1458.7 653.562 1459.92 654.375 1460.94 655.402C1461.97 656.428 1462.78 657.646 1463.34 658.987C1463.9 660.328 1464.18 661.765 1464.18 663.216Z" fill="#3F3D56"/>
<path d="M1571.03 672.213H967.854V673.858H1571.03V672.213Z" fill="#3F3D56"/>
<path d="M1434.59 452.89H1297.63V450.068H1235.52V452.89H1097.99C1095.54 452.89 1093.18 453.866 1091.44 455.603C1089.71 457.34 1088.73 459.697 1088.73 462.153V649.67C1088.73 652.126 1089.71 654.483 1091.44 656.22C1093.18 657.957 1095.54 658.933 1097.99 658.933H1434.59C1437.05 658.933 1439.4 657.957 1441.14 656.22C1442.88 654.483 1443.86 652.126 1443.86 649.67V462.153C1443.86 460.937 1443.62 459.732 1443.15 458.608C1442.69 457.485 1442 456.463 1441.14 455.603C1440.28 454.743 1439.26 454.061 1438.14 453.595C1437.01 453.13 1435.81 452.89 1434.59 452.89Z" fill="#3F3D56"/>
<path d="M1266.56 538.926C1277.92 538.926 1287.13 529.717 1287.13 518.357C1287.13 506.997 1277.92 497.788 1266.56 497.788C1255.2 497.788 1245.99 506.997 1245.99 518.357C1245.99 529.717 1255.2 538.926 1266.56 538.926Z" stroke="#D0CDE1" stroke-width="2" stroke-miterlimit="10"/>
<path d="M1259.98 546.331C1271.34 546.331 1280.55 537.122 1280.55 525.762C1280.55 514.402 1271.34 505.193 1259.98 505.193C1248.62 505.193 1239.41 514.402 1239.41 525.762C1239.41 537.122 1248.62 546.331 1259.98 546.331Z" fill="#D0CDE1"/>
<defs>
<linearGradient id="paint0_linear" x1="639.5" y1="810" x2="1.08008" y2="-2.77732" gradientUnits="userSpaceOnUse">
<stop stop-color="#8838FF"/>
<stop offset="1" stop-color="#E942FF"/>
</linearGradient>
</defs>
</svg>
